<svg width="116" height="42" viewBox="0 0 116 42" fill="none" xmlns="http://www.w3.org/2000/svg">
<g clip-path="url(#clip0_98_1325)">
<mask id="mask0_98_1325" style="mask-type:luminance" maskUnits="userSpaceOnUse" x="0" y="0" width="116" height="42">
<path d="M116 0.5H0V41.5H116V0.5Z" fill="white"/>
</mask>
<g mask="url(#mask0_98_1325)">
<path d="M25.2799 1.80702H25.1078L25.0157 1.9532L8.54843 28.1043H8.27733V28.4185V28.5636L1.29983 39.6407L0.996094 40.1229H1.56403H3.23563H3.40798L3.49999 39.9765L9.67649 30.1499H26.1948V39.8088V40.1229H26.5075H27.8918H28.2045V39.8088V2.1212V1.80702H27.8918H26.8201V1.7458L26.7817 1.80702H25.2799ZM35.8599 38.5857C37.8709 39.7301 40.0774 40.3559 42.4734 40.4635C42.706 40.4814 42.9387 40.4904 43.1713 40.4904C46.4037 40.4904 49.1737 39.5697 51.4642 37.7178C53.8225 35.8146 55.0844 33.4954 55.2111 30.769C55.3202 28.3029 54.3598 26.1423 52.3678 24.3029C50.385 22.472 47.46 21.0282 43.6215 19.9539C40.1073 18.9624 37.5283 17.7274 35.8542 16.2661C34.191 14.8144 33.424 13.1441 33.5064 11.2418C33.6243 8.43217 34.7774 6.38056 36.9604 5.04056C38.8626 3.89067 41.244 3.36438 44.1242 3.48486C47.4867 3.63936 50.1203 4.77621 52.0576 6.87519L52.2699 7.10524L52.4991 6.89218L53.5439 5.92113L53.7748 5.70656L53.5599 5.47583C51.2148 2.95761 48.0861 1.62671 44.204 1.46615C40.9532 1.30655 38.1803 1.91827 35.9043 3.32267C33.1088 5.0264 31.6323 7.65456 31.4712 11.1612C31.362 13.594 32.3237 15.7364 34.3145 17.5745L34.3156 17.5756C36.2984 19.3884 39.2229 20.8232 43.0612 21.8974C46.5748 22.8888 49.1533 24.1301 50.8271 25.6038C52.4901 27.068 53.2584 28.7582 53.1759 30.6884C53.093 32.7879 52.1196 34.5978 50.2115 36.1249L50.2106 36.1257C48.1538 37.7858 45.6107 38.5648 42.5583 38.4451C40.5145 38.3422 38.6465 37.8207 36.9497 36.883C35.0197 35.8113 33.7448 34.3872 33.0956 32.6141L32.9864 32.3161L32.6911 32.4289L31.3851 32.9277L31.0949 33.0384L31.2031 33.3308C32.0159 35.5267 33.5769 37.2774 35.8599 38.5857ZM60.9862 38.5857C62.9971 39.7301 65.2038 40.3559 67.5998 40.4635C67.8324 40.4814 68.065 40.4904 68.2976 40.4904C71.5299 40.4904 74.3001 39.5697 76.5906 37.7178C78.9489 35.8146 80.2108 33.4954 80.3374 30.769C80.4465 28.3029 79.4862 26.1423 77.4942 24.3029C75.5114 22.472 72.5864 21.0282 68.7479 19.9539C65.2337 18.9624 62.6546 17.7274 60.9806 16.2661C59.3173 14.8144 58.5504 13.1441 58.6328 11.2418C58.7506 8.43225 59.9036 6.38066 62.0866 5.04065C63.9889 3.8907 66.3702 3.36438 69.2505 3.48486C72.6131 3.63936 75.2467 4.77621 77.184 6.87519L77.3963 7.10524L77.6255 6.89218L78.6703 5.92113L78.9012 5.70656L78.6862 5.47583C76.3412 2.95761 73.2125 1.62671 69.3304 1.46615C66.0794 1.30655 63.3065 1.91831 61.0304 3.32278C58.235 5.02653 56.7586 7.65466 56.5976 11.1612C56.4883 13.594 57.4501 15.7364 59.4408 17.5745L59.4419 17.5756C61.4247 19.3884 64.3493 20.8232 68.1876 21.8974C71.7012 22.8888 74.2796 24.1301 75.9535 25.6038C77.6164 27.068 78.3846 28.7582 78.3023 30.6884C78.2192 32.7879 77.2459 34.5978 75.3378 36.1249L75.3367 36.1257C73.28 37.7858 70.7371 38.5648 67.6847 38.4451C65.6409 38.3422 63.7729 37.8207 62.076 36.883C60.1461 35.8113 58.8712 34.3872 58.2219 32.6141L58.1128 32.3161L57.8175 32.4289L56.5115 32.9277L56.2213 33.0384L56.3295 33.3308C57.1423 35.5267 58.7033 37.2774 60.9862 38.5857ZM85.0392 2.1212V1.80702H84.7265H83.316H83.0034V2.1212V39.8088V40.1229H83.316H84.7265H85.0392V39.8088V2.1212ZM90.2376 1.99073H89.9249V2.30491V39.8088V40.1229H90.2376H91.3354V40.2792L91.4268 40.1229H92.8756H93.0543L93.1449 39.968L115.111 2.46426L115.388 1.99073H114.841H113.222H113.043L112.953 2.14552L91.9607 37.9735V2.30491V1.99073H91.648H90.2376ZM26.1948 28.1043H10.9601L26.1948 3.91379V28.1043Z" fill="#636363" stroke="#636363" stroke-width="2"/>
<path d="M14.455 5.84023C14.4484 5.83719 14.4444 5.83578 14.4418 5.83539C14.3961 5.81583 14.349 5.80191 14.2999 5.79566C14.3007 5.8005 14.3033 5.80292 14.3079 5.80292C14.2188 5.81743 14.1613 5.89285 14.083 5.93036C13.9942 5.97311 13.8953 5.94306 13.8017 5.95536C13.6976 5.96887 13.5954 6.02594 13.4932 6.05255C13.3878 6.07997 13.2987 6.1328 13.1973 6.16911C13.1256 6.19471 13.0054 6.19551 12.961 6.11849C12.9483 6.09631 12.9674 6.06968 12.965 6.0457C12.9609 6.00275 12.9409 5.95476 12.9201 5.91725C12.8654 5.81946 12.7544 5.75896 12.6749 5.68334C12.5951 5.60712 12.519 5.52646 12.4279 5.46336C12.3303 5.3956 12.242 5.34821 12.1727 5.24698C12.1178 5.16674 12.0747 5.07841 12.0128 5.00301C11.9393 4.91327 11.8293 4.8673 11.7566 4.77878C11.6993 4.709 11.6919 4.61806 11.6448 4.54365C11.5981 4.46946 11.5126 4.44345 11.4547 4.38234C11.4198 4.34544 11.4283 4.27648 11.4245 4.2301C11.4016 3.95547 11.1915 3.80867 11.0496 3.59795C11.0001 3.52435 11.0212 3.44693 11.0074 3.36425C10.9919 3.2713 10.9298 3.20939 10.8589 3.15353C10.7768 3.08861 10.6997 3.03235 10.6432 2.94181C10.5779 2.83736 10.5284 2.72383 10.4787 2.61152C10.5681 2.54559 10.6945 2.54376 10.7033 2.40483C10.7111 2.28224 10.6574 2.1427 10.6097 2.032C10.525 1.8356 10.3725 1.8112 10.1826 1.76946C10.0354 1.737 9.94137 1.67872 9.79501 1.75252C9.66841 1.81624 9.56817 1.86181 9.42341 1.84245C9.28244 1.8235 9.14805 1.77329 9.01128 1.73619C8.95157 1.71986 8.89467 1.70876 8.84036 1.67731C8.79044 1.64827 8.74112 1.61117 8.68262 1.6023C8.61813 1.54523 8.46597 1.58193 8.37032 1.57225C8.36893 1.56358 8.35514 1.51539 8.35475 1.50732C8.34995 1.50994 8.34476 1.51075 8.33898 1.50934C8.33937 1.47708 8.32639 1.44865 8.3218 1.42465C8.17045 1.36274 7.93423 1.40691 7.85417 1.56358C7.80944 1.65109 7.86155 1.75333 7.81643 1.83661C7.75133 1.95638 7.61216 1.9098 7.51252 1.87633C7.44662 1.80132 7.26951 1.77047 7.19364 1.82047C7.17466 1.82189 7.13094 1.81059 7.10259 1.79245C7.10498 1.7751 7.10558 1.72651 7.0972 1.71159C7.0972 1.71159 7.06385 1.66561 7.06306 1.68598C7.06345 1.67388 7.06406 1.66178 7.06465 1.64968C7.06485 1.64545 7.01933 1.62448 7.01394 1.62145C6.99916 1.61319 6.98437 1.60633 6.969 1.59947C6.93586 1.58455 6.9037 1.56721 6.87316 1.54765C6.83801 1.54039 6.80707 1.52487 6.77392 1.51236C6.73779 1.49885 6.70044 1.49039 6.66311 1.48131C6.62077 1.47103 6.57825 1.46074 6.53591 1.45046C6.46783 1.43009 6.39973 1.4059 6.33085 1.38916C6.27813 1.37646 6.22742 1.37807 6.1767 1.35549C6.16951 1.34823 6.15613 1.33593 6.13617 1.32181C6.09902 1.2954 6.09463 1.25426 6.10102 1.21232C6.10102 1.18611 6.1096 1.15727 6.12099 1.13368C6.12997 1.11493 6.14254 1.10041 6.14156 1.07823C6.13976 1.0375 6.1048 1.00402 6.08245 0.973171C6.05869 0.940909 6.0443 0.89332 6.03094 0.855816C6.05869 0.821738 6.06847 0.782014 6.06627 0.731402C6.06627 0.735637 6.07066 0.738257 6.07066 0.738257C6.06349 0.715471 6.06308 0.71648 6.04232 0.702567C6.03453 0.654374 5.93429 0.566055 5.85642 0.576742C5.82906 0.550327 5.84584 0.558997 5.8017 0.554359C5.77016 0.525323 5.75998 0.528348 5.71585 0.515644C5.68928 0.499311 5.65534 0.493262 5.60862 0.509797C5.56728 0.491044 5.51117 0.5225 5.51517 0.52613C5.46945 0.587631 5.39237 0.637235 5.31469 0.605577C5.28815 0.603964 5.27137 0.604972 5.24522 0.606787C5.21606 0.56182 5.15975 0.547504 5.10384 0.56182C5.02217 0.496891 4.98084 0.598318 4.90436 0.60961C4.79694 0.625539 4.6967 0.550529 4.58768 0.577145C4.58428 0.570289 4.58428 0.563232 4.58768 0.555973C4.44611 0.547907 4.15779 0.674336 4.05195 0.764874C3.98446 0.768908 3.87804 0.786249 3.79897 0.824762C3.79817 0.817503 3.79517 0.811454 3.79018 0.806009C3.74585 0.823352 3.70712 0.821335 3.66538 0.846742C3.62006 0.836257 3.56974 0.847749 3.52901 0.876383C3.50844 0.877189 3.46271 0.877996 3.43696 0.866906C3.4056 0.869325 3.32134 0.861058 3.30537 0.85763C3.31116 0.848959 3.27383 0.842306 3.25965 0.842306C3.25765 0.80722 3.26065 0.816697 3.23149 0.776569C3.23329 0.778787 3.23509 0.781006 3.23688 0.783224C3.24447 0.669699 3.10889 0.640461 3.02383 0.673127C2.95054 0.701156 2.93457 0.801776 2.90003 0.863679C2.80359 1.03669 2.64364 1.08347 2.47652 1.16231C2.29761 1.2468 2.14366 1.38452 2.09235 1.58274C2.06897 1.67267 2.07796 1.76401 2.03364 1.8481C1.98471 1.94045 1.90984 2.01869 1.83316 2.08805C1.75369 2.15984 1.67362 2.22296 1.57139 2.25764C1.46476 2.29373 1.37411 2.33042 1.30742 2.42642C1.24772 2.51231 1.18602 2.5837 1.10096 2.64499C1.02288 2.70124 0.940418 2.75206 0.878519 2.82768C0.815621 2.9045 0.775685 2.99988 0.71758 3.08094C0.655281 3.16765 0.587792 3.25013 0.522697 3.33461C0.407085 3.48524 0.269111 3.66248 0.260923 3.8615C0.431046 3.90063 0.320826 4.10973 0.31184 4.22244C0.30525 4.30592 0.319228 4.38859 0.318429 4.47188C0.31763 4.55093 0.297065 4.62895 0.271506 4.70316C0.220788 4.85096 0.153298 5.01207 0.0662399 5.14214C0.0219121 5.20828 -0.0158265 5.26937 0.00673671 5.35204C0.0298991 5.43654 0.06005 5.51073 0.0726294 5.59845C0.0961912 5.76118 0.149305 5.91403 0.257928 6.03904C0.374139 6.17294 0.50932 6.28807 0.617143 6.42983C0.728363 6.57582 0.764903 6.74519 0.844574 6.90671C0.885905 6.9906 0.941615 7.06561 1.01569 7.12247C1.08019 7.17207 1.15347 7.21018 1.20818 7.27188C1.29025 7.36423 1.33577 7.48239 1.42663 7.5681C1.50051 7.63747 1.58897 7.69069 1.6904 7.7024C1.79762 7.7147 1.90485 7.68464 2.00549 7.65098C2.11611 7.61388 2.23172 7.59149 2.34753 7.5796C2.47671 7.56669 2.6083 7.56669 2.73669 7.58725C2.84732 7.605 2.95614 7.63868 3.06875 7.64391C3.20832 7.65016 3.31296 7.58423 3.44195 7.54551C3.55337 7.51224 3.66977 7.50498 3.78438 7.48905C3.91877 7.4703 4.00843 7.42594 4.12483 7.3606C4.20771 7.31403 4.30155 7.30273 4.37583 7.37069C4.4493 7.43784 4.518 7.51306 4.58528 7.58625C4.64378 7.64996 4.71008 7.73284 4.79394 7.76289C4.91854 7.80746 5.05413 7.76168 5.18032 7.79817C5.27037 7.82419 5.35243 7.89214 5.41853 7.95686C5.49221 8.02906 5.52774 8.0962 5.51957 8.20106C5.51178 8.30188 5.48242 8.40714 5.503 8.50816C5.45308 8.63781 5.36722 8.77433 5.39017 8.91911C5.41473 9.07478 5.55531 9.2004 5.65674 9.31008C5.87678 9.54843 6.06428 9.81964 6.21943 10.1042C6.25836 10.1755 6.30308 10.2447 6.33005 10.3219C6.35739 10.3998 6.34103 10.4825 6.33903 10.5627C6.33563 10.6962 6.40852 10.7996 6.46483 10.914C6.6072 11.2021 6.33463 11.4068 6.31088 11.684H6.2961C6.23341 11.8256 6.17769 11.9716 6.14475 12.1232C6.09244 12.363 6.11081 12.6067 6.21383 12.8304C6.32086 13.0625 6.51575 13.2258 6.64353 13.443C6.71143 13.5581 6.7282 13.6823 6.73938 13.8134C6.75036 13.9424 6.78231 14.0513 6.81725 14.1745C6.8518 14.2961 6.84161 14.4238 6.86776 14.5466C6.89573 14.678 6.97759 14.7873 7.04967 14.8976C7.13134 15.0226 7.216 15.1458 7.30186 15.268C7.35138 15.3386 7.41828 15.3953 7.46519 15.4681C7.52051 15.5538 7.48277 15.6189 7.45702 15.706C7.43265 15.7889 7.48477 15.8625 7.53489 15.9232C7.63691 16.0466 7.81582 16.214 7.98794 16.2087C8.24572 16.2008 8.46476 16.0514 8.72953 16.0847C8.86073 16.1012 8.96216 16.0813 9.07419 16.0081C9.16703 15.9474 9.25768 15.8957 9.36111 15.855C9.46993 15.8121 9.58155 15.7731 9.68119 15.7102C9.78122 15.6469 9.8559 15.5556 9.92919 15.4638C10.0144 15.3572 10.0943 15.2463 10.1798 15.1396C10.2523 15.049 10.3439 14.9672 10.401 14.8653C10.4651 14.751 10.437 14.6312 10.4557 14.5078C10.4709 14.4082 10.518 14.2965 10.5849 14.2215C10.6626 14.1346 10.7876 14.1269 10.8747 14.0541C10.9501 13.9912 10.9903 13.8928 11.0084 13.7979C11.0482 13.5906 10.9821 13.3867 11.0034 13.1806C11.0216 13.0048 11.1584 12.9019 11.2834 12.7957C11.4783 12.6301 11.6741 12.4604 11.8976 12.3349C12.0665 12.24 12.2594 12.1533 12.3554 11.9728C12.479 11.7405 12.4004 11.4574 12.4285 11.2071C12.4423 11.0849 12.5048 10.9442 12.4227 10.8329C12.3712 10.7629 12.2852 10.7313 12.2342 10.6615C12.151 10.5472 12.2219 10.4157 12.2079 10.2897C12.1965 10.1868 12.1194 10.1149 12.0833 10.0223C12.0164 9.85089 12.1639 9.64099 12.2568 9.50811C12.3846 9.32501 12.5561 9.18306 12.6953 9.01004C12.772 8.91468 12.8163 8.80175 12.8878 8.70335C12.9529 8.61362 13.0423 8.5497 13.1176 8.46965C13.2937 8.28273 13.4331 8.08169 13.6389 7.9232H13.6096C13.7723 7.90928 13.8087 7.6796 13.849 7.55621C13.8778 7.46888 13.9241 7.40537 13.9832 7.33561C14.0686 7.23478 14.0952 7.1374 14.1196 7.00934C14.1639 6.77646 14.3739 6.61715 14.4161 6.38587C14.4408 6.24916 14.3833 6.01667 14.5391 5.94266C14.5259 5.89365 14.4882 5.87955 14.455 5.84023Z" fill="#636363"/>
<path d="M14.3088 11.911C14.2835 11.8725 14.298 11.8231 14.3007 11.7808C14.3101 11.6361 14.246 11.4283 14.1324 11.3398L14.0896 11.3846C13.858 11.4773 14.0234 11.5911 13.9043 11.7142C13.8966 11.7019 13.882 11.6847 13.873 11.6702C13.782 11.7063 13.7429 11.7976 13.6941 11.8781C13.6291 11.9857 13.5324 12.074 13.4259 12.1346C13.2818 12.2165 13.0693 12.2149 12.9843 12.3847C12.9609 12.4313 12.9741 12.4491 12.9764 12.4971C12.9786 12.5445 12.9239 12.5455 12.9087 12.581C12.8542 12.7074 12.8621 12.8014 12.9012 12.9298C12.9682 13.1496 12.8057 13.2722 12.7078 13.4416C12.6564 13.5305 12.6527 13.5983 12.6923 13.6913C12.7351 13.7914 12.6729 13.9205 12.6637 14.0244C12.6537 14.1352 12.6913 14.241 12.7869 14.2992C12.8757 14.3534 12.972 14.309 13.0586 14.2735C13.1465 14.2374 13.2227 14.2251 13.3163 14.2356C13.4213 14.2472 13.4739 14.1846 13.5099 14.0857C13.5508 13.9741 13.5792 13.8727 13.6477 13.7748C13.7218 13.6686 13.7962 13.5688 13.8317 13.4404C13.8578 13.3463 13.8745 13.2509 13.9121 13.1604C13.9523 13.0641 14 12.9713 14.0392 12.8746C14.12 12.6749 14.1292 12.4624 14.1536 12.25C14.1896 12.19 14.2518 12.1732 14.3029 12.2215C14.3604 12.1593 14.3988 12.0853 14.3742 11.9971C14.3644 11.9592 14.3289 11.9416 14.3088 11.911Z" fill="#636363"/>
</g>
</g>
<defs>
<clipPath id="clip0_98_1325">
<rect width="116" height="41" fill="white" transform="translate(0 0.5)"/>
</clipPath>
</defs>
</svg>
