<svg width="155" height="30" viewBox="0 0 155 30" fill="none" xmlns="http://www.w3.org/2000/svg">
<path d="M14.8 29L8.96 18.4H7.32V29H0.48V0.919999H11.96C14.1733 0.919999 16.0533 1.30667 17.6 2.08C19.1733 2.85333 20.3467 3.92 21.12 5.28C21.8933 6.61333 22.28 8.10667 22.28 9.76C22.28 11.6267 21.7467 13.2933 20.68 14.76C19.64 16.2267 18.0933 17.2667 16.04 17.88L22.52 29H14.8ZM7.32 13.56H11.56C12.8133 13.56 13.7467 13.2533 14.36 12.64C15 12.0267 15.32 11.16 15.32 10.04C15.32 8.97333 15 8.13333 14.36 7.52C13.7467 6.90667 12.8133 6.6 11.56 6.6H7.32V13.56ZM46.4137 17.48C46.4137 18.12 46.3737 18.7867 46.2938 19.48H30.8137C30.9204 20.8667 31.3604 21.9333 32.1337 22.68C32.9337 23.4 33.9071 23.76 35.0538 23.76C36.7604 23.76 37.9471 23.04 38.6137 21.6H45.8938C45.5204 23.0667 44.8404 24.3867 43.8538 25.56C42.8938 26.7333 41.6804 27.6533 40.2138 28.32C38.7471 28.9867 37.1071 29.32 35.2937 29.32C33.1071 29.32 31.1604 28.8533 29.4537 27.92C27.7471 26.9867 26.4137 25.6533 25.4537 23.92C24.4937 22.1867 24.0137 20.16 24.0137 17.84C24.0137 15.52 24.4804 13.4933 25.4137 11.76C26.3737 10.0267 27.7071 8.69333 29.4137 7.76C31.1204 6.82667 33.0804 6.36 35.2937 6.36C37.4538 6.36 39.3738 6.81333 41.0538 7.72C42.7338 8.62667 44.0404 9.92 44.9738 11.6C45.9337 13.28 46.4137 15.24 46.4137 17.48ZM39.4137 15.68C39.4137 14.5067 39.0137 13.5733 38.2137 12.88C37.4137 12.1867 36.4138 11.84 35.2138 11.84C34.0671 11.84 33.0937 12.1733 32.2937 12.84C31.5204 13.5067 31.0404 14.4533 30.8537 15.68H39.4137ZM80.8622 6.68L74.8222 29H67.2622L63.7422 14.52L60.1022 29H52.5822L46.5022 6.68H53.3422L56.5022 22.64L60.2622 6.68H67.5022L71.3022 22.56L74.4222 6.68H80.8622ZM103.311 17.48C103.311 18.12 103.271 18.7867 103.191 19.48H87.7106C87.8173 20.8667 88.2573 21.9333 89.0306 22.68C89.8306 23.4 90.804 23.76 91.9506 23.76C93.6573 23.76 94.844 23.04 95.5106 21.6H102.791C102.417 23.0667 101.737 24.3867 100.751 25.56C99.7906 26.7333 98.5773 27.6533 97.1106 28.32C95.644 28.9867 94.004 29.32 92.1906 29.32C90.004 29.32 88.0573 28.8533 86.3506 27.92C84.644 26.9867 83.3106 25.6533 82.3506 23.92C81.3906 22.1867 80.9106 20.16 80.9106 17.84C80.9106 15.52 81.3773 13.4933 82.3106 11.76C83.2706 10.0267 84.604 8.69333 86.3106 7.76C88.0173 6.82667 89.9773 6.36 92.1906 6.36C94.3506 6.36 96.2706 6.81333 97.9506 7.72C99.6306 8.62667 100.937 9.92 101.871 11.6C102.831 13.28 103.311 15.24 103.311 17.48ZM96.3106 15.68C96.3106 14.5067 95.9106 13.5733 95.1106 12.88C94.3106 12.1867 93.3106 11.84 92.1106 11.84C90.964 11.84 89.9906 12.1733 89.1906 12.84C88.4173 13.5067 87.9373 14.4533 87.7506 15.68H96.3106ZM104.359 17.8C104.359 15.5067 104.786 13.4933 105.639 11.76C106.519 10.0267 107.706 8.69333 109.199 7.76C110.692 6.82667 112.359 6.36 114.199 6.36C115.772 6.36 117.146 6.68 118.319 7.32C119.519 7.96 120.439 8.8 121.079 9.84V6.68H127.919V29H121.079V25.84C120.412 26.88 119.479 27.72 118.279 28.36C117.106 29 115.732 29.32 114.159 29.32C112.346 29.32 110.692 28.8533 109.199 27.92C107.706 26.96 106.519 25.6133 105.639 23.88C104.786 22.12 104.359 20.0933 104.359 17.8ZM121.079 17.84C121.079 16.1333 120.599 14.7867 119.639 13.8C118.706 12.8133 117.559 12.32 116.199 12.32C114.839 12.32 113.679 12.8133 112.719 13.8C111.786 14.76 111.319 16.0933 111.319 17.8C111.319 19.5067 111.786 20.8667 112.719 21.88C113.679 22.8667 114.839 23.36 116.199 23.36C117.559 23.36 118.706 22.8667 119.639 21.88C120.599 20.8933 121.079 19.5467 121.079 17.84ZM138.508 10.4C139.308 9.17333 140.308 8.21333 141.508 7.52C142.708 6.8 144.041 6.44 145.508 6.44V13.68H143.628C141.921 13.68 140.641 14.0533 139.788 14.8C138.934 15.52 138.508 16.8 138.508 18.64V29H131.668V6.68H138.508V10.4ZM150.777 29.32C149.577 29.32 148.59 28.9733 147.817 28.28C147.07 27.56 146.697 26.68 146.697 25.64C146.697 24.5733 147.07 23.68 147.817 22.96C148.59 22.24 149.577 21.88 150.777 21.88C151.95 21.88 152.91 22.24 153.657 22.96C154.43 23.68 154.817 24.5733 154.817 25.64C154.817 26.68 154.43 27.56 153.657 28.28C152.91 28.9733 151.95 29.32 150.777 29.32Z" fill="#636363"/>
</svg>
