<svg width="223" height="32" viewBox="0 0 223 32" fill="none" xmlns="http://www.w3.org/2000/svg">
<g clip-path="url(#clip0_98_1361)">
<path d="M10.4898 30.7799C8.54322 30.7799 6.78322 30.4466 5.20988 29.7799C3.66322 29.1132 2.43655 28.1532 1.52988 26.8999C0.623216 25.6466 0.156549 24.1666 0.129883 22.4599H6.12988C6.20988 23.6066 6.60988 24.5132 7.32988 25.1799C8.07655 25.8466 9.08988 26.1799 10.3698 26.1799C11.6765 26.1799 12.7032 25.8732 13.4498 25.2599C14.1965 24.6199 14.5698 23.7932 14.5698 22.7799C14.5698 21.9532 14.3165 21.2732 13.8098 20.7399C13.3032 20.2066 12.6632 19.7932 11.8898 19.4999C11.1432 19.1799 10.1032 18.8332 8.76988 18.4599C6.95655 17.9266 5.47655 17.4066 4.32988 16.8999C3.20988 16.3666 2.23655 15.5799 1.40988 14.5399C0.609883 13.4732 0.209883 12.0599 0.209883 10.2999C0.209883 8.64657 0.623216 7.20657 1.44988 5.9799C2.27655 4.75323 3.43655 3.8199 4.92988 3.1799C6.42322 2.51323 8.12988 2.1799 10.0498 2.1799C12.9298 2.1799 15.2632 2.88657 17.0498 4.2999C18.8632 5.68657 19.8632 7.63323 20.0498 10.1399H13.8898C13.8365 9.1799 13.4232 8.39323 12.6498 7.7799C11.9032 7.1399 10.9032 6.8199 9.64988 6.8199C8.55655 6.8199 7.67655 7.0999 7.00988 7.6599C6.36988 8.2199 6.04988 9.03323 6.04988 10.0999C6.04988 10.8466 6.28988 11.4732 6.76988 11.9799C7.27655 12.4599 7.88988 12.8599 8.60988 13.1799C9.35655 13.4732 10.3965 13.8199 11.7298 14.2199C13.5432 14.7532 15.0232 15.2866 16.1698 15.8199C17.3165 16.3532 18.3032 17.1532 19.1298 18.2199C19.9565 19.2866 20.3698 20.6866 20.3698 22.4199C20.3698 23.9132 19.9832 25.2999 19.2098 26.5799C18.4365 27.8599 17.3032 28.8866 15.8098 29.6599C14.3165 30.4066 12.5432 30.7799 10.4898 30.7799ZM23.7848 19.3399C23.7848 17.0999 24.2248 15.1132 25.1048 13.3799C26.0115 11.6466 27.2248 10.3132 28.7448 9.3799C30.2915 8.44657 32.0115 7.9799 33.9048 7.9799C35.5582 7.9799 36.9982 8.31323 38.2248 8.9799C39.4782 9.64657 40.4782 10.4866 41.2248 11.4999V8.3399H46.8648V30.4999H41.2248V27.2599C40.5048 28.2999 39.5048 29.1666 38.2248 29.8599C36.9715 30.5266 35.5182 30.8599 33.8648 30.8599C31.9982 30.8599 30.2915 30.3799 28.7448 29.4199C27.2248 28.4599 26.0115 27.1132 25.1048 25.3799C24.2248 23.6199 23.7848 21.6066 23.7848 19.3399ZM41.2248 19.4199C41.2248 18.0599 40.9582 16.8999 40.4248 15.9399C39.8915 14.9532 39.1715 14.2066 38.2648 13.6999C37.3582 13.1666 36.3848 12.8999 35.3448 12.8999C34.3048 12.8999 33.3448 13.1532 32.4648 13.6599C31.5848 14.1666 30.8648 14.9132 30.3048 15.8999C29.7715 16.8599 29.5048 18.0066 29.5048 19.3399C29.5048 20.6732 29.7715 21.8466 30.3048 22.8599C30.8648 23.8466 31.5848 24.6066 32.4648 25.1399C33.3715 25.6732 34.3315 25.9399 35.3448 25.9399C36.3848 25.9399 37.3582 25.6866 38.2648 25.1799C39.1715 24.6466 39.8915 23.8999 40.4248 22.9399C40.9582 21.9532 41.2248 20.7799 41.2248 19.4199ZM57.9342 0.899902V30.4999H52.3342V0.899902H57.9342ZM84.067 18.9399C84.067 19.7399 84.0137 20.4599 83.907 21.0999H67.707C67.8404 22.6999 68.4004 23.9532 69.387 24.8599C70.3737 25.7666 71.587 26.2199 73.027 26.2199C75.107 26.2199 76.587 25.3266 77.467 23.5399H83.507C82.867 25.6732 81.6404 27.4332 79.827 28.8199C78.0137 30.1799 75.787 30.8599 73.147 30.8599C71.0137 30.8599 69.0937 30.3932 67.387 29.4599C65.707 28.4999 64.387 27.1532 63.427 25.4199C62.4937 23.6866 62.027 21.6866 62.027 19.4199C62.027 17.1266 62.4937 15.1132 63.427 13.3799C64.3604 11.6466 65.667 10.3132 67.347 9.3799C69.027 8.44657 70.9604 7.9799 73.147 7.9799C75.2537 7.9799 77.1337 8.43323 78.787 9.3399C80.467 10.2466 81.7604 11.5399 82.667 13.2199C83.6004 14.8732 84.067 16.7799 84.067 18.9399ZM78.267 17.3399C78.2404 15.8999 77.7204 14.7532 76.707 13.8999C75.6937 13.0199 74.4537 12.5799 72.987 12.5799C71.6004 12.5799 70.427 13.0066 69.467 13.8599C68.5337 14.6866 67.9604 15.8466 67.747 17.3399H78.267ZM96.6345 30.8599C94.8212 30.8599 93.1945 30.5399 91.7545 29.8999C90.3145 29.2332 89.1679 28.3399 88.3145 27.2199C87.4879 26.0999 87.0345 24.8599 86.9545 23.4999H92.5945C92.7012 24.3532 93.1145 25.0599 93.8345 25.6199C94.5812 26.1799 95.5012 26.4599 96.5945 26.4599C97.6612 26.4599 98.4879 26.2466 99.0745 25.8199C99.6879 25.3932 99.9945 24.8466 99.9945 24.1799C99.9945 23.4599 99.6212 22.9266 98.8745 22.5799C98.1545 22.2066 96.9945 21.8066 95.3945 21.3799C93.7412 20.9799 92.3812 20.5666 91.3145 20.1399C90.2745 19.7132 89.3679 19.0599 88.5945 18.1799C87.8479 17.2999 87.4745 16.1132 87.4745 14.6199C87.4745 13.3932 87.8212 12.2732 88.5145 11.2599C89.2345 10.2466 90.2479 9.44657 91.5545 8.8599C92.8879 8.27323 94.4479 7.9799 96.2345 7.9799C98.8745 7.9799 100.981 8.64657 102.555 9.9799C104.128 11.2866 104.995 13.0599 105.155 15.2999H99.7945C99.7145 14.4199 99.3412 13.7266 98.6745 13.2199C98.0345 12.6866 97.1679 12.4199 96.0745 12.4199C95.0612 12.4199 94.2745 12.6066 93.7145 12.9799C93.1812 13.3532 92.9145 13.8732 92.9145 14.5399C92.9145 15.2866 93.2879 15.8599 94.0345 16.2599C94.7812 16.6332 95.9412 17.0199 97.5145 17.4199C99.1145 17.8199 100.435 18.2332 101.475 18.6599C102.515 19.0866 103.408 19.7532 104.155 20.6599C104.928 21.5399 105.328 22.7132 105.355 24.1799C105.355 25.4599 104.995 26.6066 104.275 27.6199C103.581 28.6332 102.568 29.4332 101.235 30.0199C99.9279 30.5799 98.3945 30.8599 96.6345 30.8599ZM147.271 2.5799L139.471 30.4999H132.871L127.631 10.6199L122.151 30.4999L115.591 30.5399L108.071 2.5799H114.071L118.991 24.2599L124.671 2.5799H130.911L136.271 24.1399L141.231 2.5799H147.271ZM149.488 19.3399C149.488 17.0999 149.928 15.1132 150.808 13.3799C151.715 11.6466 152.928 10.3132 154.448 9.3799C155.995 8.44657 157.715 7.9799 159.608 7.9799C161.261 7.9799 162.701 8.31323 163.928 8.9799C165.181 9.64657 166.181 10.4866 166.928 11.4999V8.3399H172.568V30.4999H166.928V27.2599C166.208 28.2999 165.208 29.1666 163.928 29.8599C162.675 30.5266 161.221 30.8599 159.568 30.8599C157.701 30.8599 155.995 30.3799 154.448 29.4199C152.928 28.4599 151.715 27.1132 150.808 25.3799C149.928 23.6199 149.488 21.6066 149.488 19.3399ZM166.928 19.4199C166.928 18.0599 166.661 16.8999 166.128 15.9399C165.595 14.9532 164.875 14.2066 163.968 13.6999C163.061 13.1666 162.088 12.8999 161.048 12.8999C160.008 12.8999 159.048 13.1532 158.168 13.6599C157.288 14.1666 156.568 14.9132 156.008 15.8999C155.475 16.8599 155.208 18.0066 155.208 19.3399C155.208 20.6732 155.475 21.8466 156.008 22.8599C156.568 23.8466 157.288 24.6066 158.168 25.1399C159.075 25.6732 160.035 25.9399 161.048 25.9399C162.088 25.9399 163.061 25.6866 163.968 25.1799C164.875 24.6466 165.595 23.8999 166.128 22.9399C166.661 21.9532 166.928 20.7799 166.928 19.4199ZM187.277 25.3399L192.877 8.3399H198.837L190.637 30.4999H183.837L175.677 8.3399H181.677L187.277 25.3399ZM222.583 18.9399C222.583 19.7399 222.529 20.4599 222.423 21.0999H206.223C206.356 22.6999 206.916 23.9532 207.903 24.8599C208.889 25.7666 210.103 26.2199 211.543 26.2199C213.623 26.2199 215.103 25.3266 215.983 23.5399H222.023C221.383 25.6732 220.156 27.4332 218.343 28.8199C216.529 30.1799 214.303 30.8599 211.663 30.8599C209.529 30.8599 207.609 30.3932 205.903 29.4599C204.223 28.4999 202.903 27.1532 201.943 25.4199C201.009 23.6866 200.543 21.6866 200.543 19.4199C200.543 17.1266 201.009 15.1132 201.943 13.3799C202.876 11.6466 204.183 10.3132 205.863 9.3799C207.543 8.44657 209.476 7.9799 211.663 7.9799C213.769 7.9799 215.649 8.43323 217.303 9.3399C218.983 10.2466 220.276 11.5399 221.183 13.2199C222.116 14.8732 222.583 16.7799 222.583 18.9399ZM216.783 17.3399C216.756 15.8999 216.236 14.7532 215.223 13.8999C214.209 13.0199 212.969 12.5799 211.503 12.5799C210.116 12.5799 208.943 13.0066 207.983 13.8599C207.049 14.6866 206.476 15.8466 206.263 17.3399H216.783Z" fill="#636363"/>
</g>
<defs>
<clipPath id="clip0_98_1361">
<rect width="223" height="31" fill="white" transform="translate(0 0.5)"/>
</clipPath>
</defs>
</svg>
