<svg width="141" height="38" viewBox="0 0 141 38" fill="none" xmlns="http://www.w3.org/2000/svg">
<path d="M14.0986 1.56006L13.3281 5.89502L12.8584 5.49951L11.874 4.67139L11.2959 5.8208L7.88672 12.6079L7.52637 13.3257L8.1416 13.8423L11.4111 16.5884L6.61914 36.4399H1.57715L9.99707 1.56006H14.0986ZM27.791 1.68896H34.6465L40.5713 25.8813L40.5752 25.897L43.2988 36.2983H38.0381L13.6826 15.8413L15.085 10.0288L32.752 24.8892L35.2051 26.9517L34.3887 23.8521L31.8418 14.1714L30.3203 7.57764L30.1387 6.78955H15.8682L17.125 1.57861L27.791 1.68896ZM12.918 8.20654L12.8096 8.82275H13.2861L11.9443 14.3813L10.0635 12.8013L12.5342 7.8833L12.918 8.20654Z" fill="#636363" stroke="#636363" stroke-width="2.03278"/>
<path d="M53.5571 13.7614V8.85198H72.5304V13.7614H65.7753V34.5435H60.3122V13.7614H53.5571ZM84.413 30.2615V27.5669H89.507V31.2951L86.2955 34.5435H75.8122L72.6008 31.2951V17.748L75.8122 14.4997H86.2955L89.507 17.748V25.4998H77.7686V30.2615H84.413ZM84.413 18.7816H77.7686V22.842H84.413V18.7816ZM98.187 34.5435H92.9084V14.4997H97.5964V17.1943L100.291 14.4997H104.794V19.5568H99.7373L98.187 20.9964V34.5435ZM111.823 34.5435H106.545V14.4997H111.233V17.1943L113.927 14.4997H118.431V19.5568H113.374L111.823 20.9964V34.5435ZM136.718 17.748V34.5435H132.288V32.2179L130 34.5435H123.06L119.812 31.2951V26.4226L123.06 23.1742H131.624V19.04H125.053V20.9964H120.07V17.748L123.318 14.4997H133.47L136.718 17.748ZM131.624 26.0165H124.906V30.3723H130.295L131.624 29.228V26.0165Z" fill="#636363"/>
</svg>
