<svg width="72" height="80" viewBox="0 0 72 80" fill="none" xmlns="http://www.w3.org/2000/svg">
<g clip-path="url(#clip0_98_1333)">
<path d="M28.9152 78.0085C29.5344 78.0085 30.5989 77.8071 31.4364 76.4595C30.9577 75.3904 30.6166 73.2303 30.5675 72.4445C30.3208 68.4216 31.864 64.6375 33.5536 64.5339C34.7911 64.4588 35.7819 65.6356 35.896 67.5419C36.1997 72.5541 34.5385 74.647 33.707 76.4506C33.8475 77.1506 35.028 78.3421 36.1437 78.3421C36.5555 78.3421 37.0538 78.1348 37.1787 77.967C37.0951 77.6787 37.0116 77.3046 37.0116 76.7636C37.0116 73.8592 38.8713 71.4109 40.4823 71.4109C41.7631 71.4109 42.5062 73.1118 42.5062 74.2343C42.5062 75.5602 41.3905 76.6412 39.7392 77.6787C40.0292 77.967 40.5639 78.1773 41.02 78.1773C43.376 78.1773 44.6096 75.3134 45.5228 72.6982C45.6879 72.1987 45.9779 71.4938 46.5548 71.4938C47.5476 71.4938 47.9614 78.0499 49.6098 78.0499C50.3136 78.0499 50.8915 76.5967 50.8915 75.4792C50.8915 74.649 50.6025 74.566 50.6025 73.3616C50.6025 72.0358 51.3053 70.9163 52.2568 70.9163C52.8348 70.9163 53.0432 71.4938 53.0432 72.1987C53.0432 74.8543 51.1412 79.7924 48.3349 79.7924C46.2246 79.7924 46.3897 76.1416 45.6466 76.1416C44.817 76.1416 43.6601 79.8348 39.5741 79.8348C38.9096 79.8348 38.2098 79.5031 37.6328 78.8377C36.642 79.5031 35.8134 79.7924 34.8629 79.7924C33.3364 79.7924 32.6749 78.2158 32.0556 78.2158C31.3106 78.2158 30.4869 79.8348 28.006 79.8348C26.0234 79.8348 25.6922 77.1812 24.9923 77.1812C24.3711 77.1812 23.4216 79.8348 22.3895 79.8348C20.6517 79.8348 20.2831 75.2294 18.7527 75.2294C17.5545 75.2294 13.7692 79.9069 12.7421 79.8003C12.3283 79.7568 12.1553 79.4459 12.1985 79.0312C12.2565 78.4577 12.748 76.9215 12.9485 76.194C13.2827 74.9323 13.5894 73.5492 13.7604 73.1079C13.9304 72.6636 14.3895 72.3458 14.7571 72.3803C14.9428 72.3981 14.9989 72.7456 15.0559 73.0319C15.2643 74.0576 15.5562 75.1041 15.8845 75.1041C16.4644 75.1041 18.3811 71.4109 19.4958 71.4109C20.8611 71.4109 21.0252 77.2207 22.882 77.2207C23.5032 77.2207 23.9593 76.4753 24.3711 75.5602C24.4134 74.0221 24.8252 71.8285 26.0647 71.8285C26.9336 71.8285 27.3474 73.7762 26.7252 75.4792C26.7252 77.5109 28.0463 78.0085 28.9152 78.0085ZM61.9623 73.0309C61.4501 75.1633 59.8981 78.3007 57.5823 78.3007C57.0466 78.3007 56.0951 78.0924 56.0951 77.5524C56.0951 76.9709 59.733 76.8909 59.733 74.1089C59.733 73.0733 58.7835 71.6192 57.3779 71.6192C55.5192 71.6192 53.7057 73.6538 53.7057 76.4753C53.7057 79.0046 55.2705 79.8348 56.8392 79.8348C59.5678 79.8348 61.2192 77.5919 62.0861 75.726C62.5009 76.9709 62.7457 79.8348 63.7817 79.8348C64.1935 79.8348 64.4845 79.6265 64.9818 78.508C66.2164 75.726 67.4155 72.5323 69.0698 72.5323C69.6881 72.5323 69.3175 73.6538 70.8047 73.6538C71.5055 73.6538 71.9989 73.0733 71.9989 72.406C71.9989 71.4513 71.133 70.707 69.8119 70.707C65.9294 70.707 65.1047 76.5573 64.4845 76.5573C63.4504 76.5573 63.7817 71.8689 63.0366 71.8689C62.3751 71.8689 62.0507 72.6607 61.9623 73.0309ZM34.5582 68.6615C34.4864 67.5025 34.2073 66.9792 33.5871 67.0207C32.7643 67.071 32.3839 69.6714 32.552 72.403C32.6592 74.1859 32.9236 74.4604 33.1693 74.4436C33.6244 74.417 34.7164 71.2312 34.5582 68.6615ZM27.8399 66.225C27.7819 65.5606 27.2629 65.1065 26.5601 65.1065C25.7757 65.1065 25.0375 65.9328 25.1162 66.9713C25.1663 67.6545 25.5683 68.2182 26.3566 68.2182C27.2629 68.2182 27.9234 67.1806 27.8399 66.225ZM40.6897 74.6884C40.6897 73.9846 40.3162 73.4041 39.865 73.4041C39.4895 73.4041 38.6246 73.8167 38.6246 75.1455C38.6246 76.1861 38.9932 76.6797 39.1612 76.8909C40.3575 76.5168 40.6897 75.5187 40.6897 74.6884ZM56.8392 73.2816C57.7081 73.2816 57.9568 74.3143 57.7504 74.9382C57.542 75.5602 56.7999 76.268 55.643 76.4753C55.3943 75.8514 55.2705 73.2816 56.8392 73.2816ZM9.27331 70.3358C9.15438 69.9587 8.81134 69.1106 8.71698 68.4847C8.51056 67.0987 9.23203 66.1855 9.89453 65.9762C10.6386 65.7679 10.9286 66.1421 11.2156 67.0148C11.5881 68.3416 11.6294 70.0831 11.5046 72.5728C11.3414 75.9758 9.64683 80.0836 5.43399 79.9987C1.79715 79.9187 0.188099 77.5524 0.0210009 73.9431C-0.0576334 72.2421 0.0622839 70.5421 0.765078 68.1353C1.13663 66.8479 1.46886 66.3899 2.6238 66.1421C3.53203 65.9762 3.45044 66.9289 3.24403 68.0533C2.79089 70.5421 2.58153 71.7436 2.74863 74.566C2.91081 77.5524 4.27709 78.7153 5.76426 78.7153C7.99452 78.7578 8.98532 76.8909 9.40011 74.1919C9.72841 72.0358 9.4817 70.9982 9.27331 70.3358Z" fill="#636363"/>
<path d="M57.9961 16.357C58.2822 18.4479 61.4364 21.2664 62.2915 21.2003C62.8626 21.1509 63.0818 18.4696 63.0818 16.357C63.0818 15.1466 63.1477 14.1989 62.5117 13.9778C61.5023 16.0262 58.8523 16.4448 57.9961 16.357ZM58.1711 15.4319C60.4486 15.4319 62.5334 13.6046 62.5334 11.9974C62.5334 11.2481 62.1815 10.6321 61.2831 10.5225C61.4364 10.7209 61.5023 10.8749 61.5023 11.2264C61.5023 12.4377 59.6642 13.7813 57.6679 13.7813C56.9434 13.7813 56.7242 14.2868 56.7242 14.5513C56.7242 15.1683 57.3169 15.4319 58.1711 15.4319ZM57.6895 12.9441C57.3828 12.9441 56.9434 12.9441 56.7016 12.4604C56.5041 12.0635 56.5699 11.4248 56.1974 11.1385C56.5699 11.2481 56.9651 11.2481 57.2727 11.2481C58.2606 11.2481 59.2042 10.5659 59.9276 10.5659C60.4053 10.5659 60.5586 10.8749 60.5586 11.1819C60.5586 12.1524 58.6115 12.9441 57.6895 12.9441Z" fill="#636363"/>
<path d="M8.65633 30.2048C9.40041 30.2048 9.24707 25.6251 10.4531 25.6251C10.7382 25.6251 10.8257 25.9114 10.8257 26.2638C10.8257 27.2984 10.3214 28.8178 10.3214 29.6539C10.3214 30.0725 10.4305 30.2048 10.6281 30.2048C11.1549 30.2048 12.075 25.1621 12.9743 25.1621C13.2594 25.1621 13.3901 25.4484 13.3901 25.7357C13.3901 26.792 12.0533 29.8297 12.0533 30.6885C12.0533 30.8198 12.0976 30.9304 12.2067 30.9304C12.7551 30.9304 13.8511 28.5532 14.201 27.3646C14.3986 26.7476 14.662 26.4168 14.9028 26.4168C15.122 26.4168 15.3196 26.6597 15.3196 27.1661C15.3196 28.3547 14.2227 31.1506 13.2594 33.0233C12.5143 34.4755 11.3525 36.5665 11.3525 37.7334C11.3525 38.3277 11.4606 38.9437 12.3168 39.693C10.9131 39.6051 10.343 39.4728 9.81816 38.3721C7.47289 43.0614 14.1362 42.5994 11.8558 46.7595C11.439 46.0122 8.15111 45.2412 8.15111 40.8816C8.15111 37.1173 11.439 34.9158 11.439 33.3521C11.439 33.045 11.3309 32.7805 11.0449 32.5376C10.3214 31.9206 10.2988 31.4161 9.73068 31.4161C9.31293 31.4161 8.80869 32.3836 9.33456 33.2425C9.5105 33.5288 9.66384 33.7045 9.66384 33.9691C9.66384 34.5851 8.6986 36.2357 8.02038 36.2357C7.34117 36.2357 6.81531 34.5427 6.81531 31.811C6.81531 29.3894 7.3628 26.946 8.042 26.946C8.23957 26.946 8.30543 27.0783 8.30543 27.254C8.30543 27.5403 8.21795 28.1129 8.21795 29.0804C8.21795 30.116 8.45877 30.2048 8.65633 30.2048Z" fill="#636363"/>
<path d="M14.2448 36.6545C15.1668 36.6545 15.9325 35.9714 15.9325 34.454V32.2071C15.9325 31.3492 15.9984 30.3807 16.5695 29.6976C16.5036 29.9839 16.5036 30.2929 16.5036 30.5782C16.5036 32.4717 17.5554 33.7709 17.5554 35.5982C17.5554 36.2794 17.3578 36.6545 16.8329 36.6545C16.3277 36.6545 16.3719 36.1915 16.2618 36.1915C16.1743 36.1915 16.0426 36.4778 16.0426 36.7868C16.0426 37.2488 16.3719 37.9754 17.2919 37.9754C18.0822 37.9754 18.7172 37.2488 18.7172 36.4344C18.7172 34.454 17.1828 32.2515 17.1828 30.1389C17.1828 29.2129 17.4236 28.5968 17.6212 28.1121C17.6212 32.4944 21.3259 35.6861 21.3259 37.5124C21.3259 37.931 21.0192 38.2617 20.5592 38.2617C20.054 38.2617 19.8131 37.8649 19.8131 37.5559C19.8131 37.4019 19.7905 37.3584 19.7257 37.3584C19.5949 37.3584 19.1998 37.7987 19.1998 38.3723C19.1998 39.0979 19.7905 39.9795 20.8875 39.9795C22.1358 39.9795 22.816 38.9212 22.816 37.9754C22.816 35.6643 18.322 32.1637 18.322 28.4211C18.322 27.7824 18.4311 26.7478 18.8921 25.955C15.9984 27.8258 15.101 30.3146 15.101 32.4944C15.101 34.3879 15.0351 35.3326 14.0709 35.3326C13.5656 35.3326 13.4349 34.8716 13.259 34.8716C13.1273 34.8716 13.0614 35.2675 13.0614 35.3771C13.0614 36.1915 13.6541 36.6545 14.2448 36.6545Z" fill="#636363"/>
<path d="M52.2331 14.6616C53.1983 14.6616 53.9228 14.2213 53.9228 13.9567C53.9228 13.8699 53.791 13.8027 53.505 13.8027C53.22 13.8027 52.6499 13.781 51.5745 13.6053C50.6526 13.4503 49.9507 13.0988 49.6873 13.0988C49.5998 13.0988 49.5556 13.1423 49.5556 13.2084C49.5556 13.781 50.6093 14.6616 52.2331 14.6616ZM47.4551 11.8658C47.7333 11.6782 48.9678 11.9754 50.5661 11.1826C50.7626 11.0731 50.9602 11.0286 51.1352 11.0286C51.9038 11.0286 51.7053 11.9092 52.409 11.9092C52.9565 11.9092 53.6593 11.4462 54.0761 11.4462C54.7297 11.4462 55.6724 13.5164 55.6724 14.4849C55.6724 15.6084 53.9886 16.2905 51.9913 16.2905C49.0789 16.2905 47.3224 13.7376 47.3224 12.086C47.3224 11.9537 47.3892 11.9092 47.4551 11.8658Z" fill="#636363"/>
<path d="M14.7056 44.9542C13.9831 45.1309 12.8203 46.2741 12.8203 48.0817C12.8203 50.2388 15.1223 53.5637 18.9145 53.5637C22.1139 53.5637 22.9032 51.3405 22.9032 49.8419C22.9032 46.5169 20.8656 44.1831 18.2136 44.1831C16.7668 44.1831 15.4732 45.2414 15.4732 46.8032C15.4732 48.2574 16.5692 50.4362 19.1779 50.4362C20.4056 50.4362 21.128 49.5556 21.128 48.5437C21.128 47.5525 20.2296 46.1882 18.9145 46.1882C18.5193 46.1882 18.2353 46.4508 18.2353 46.8694C18.2353 47.3975 18.9587 47.9267 19.8571 47.9267C20.0763 47.9267 20.2513 47.8832 20.3397 47.8388C20.383 47.905 20.4056 48.0155 20.4056 48.1034C20.4056 48.6098 19.922 48.9188 19.1779 48.9188C18.0603 48.9188 16.985 48.0817 16.985 46.7588C16.985 45.968 17.6652 45.3954 18.651 45.3954C20.6022 45.3954 21.764 47.1339 21.764 48.8744C21.764 50.4362 20.9098 51.3405 19.1563 51.3405C15.6482 51.3405 13.9389 48.1695 14.7056 44.9542Z" fill="#636363"/>
<path d="M38.0279 53.4534C38.0279 53.9381 38.423 54.334 38.9047 54.334C39.3873 54.334 39.7814 53.9381 39.7814 53.4534C39.7814 52.9687 39.3873 52.5718 38.9047 52.5718C38.423 52.5718 38.0279 52.9687 38.0279 53.4534ZM39.7274 57.8534C40.7781 57.8534 40.7241 57.7656 41.0533 57.7656C41.3816 57.7656 41.4042 57.964 41.4042 58.0963C41.4042 58.581 40.3289 59.1763 38.423 59.1763C37.3044 59.1763 36.6252 58.581 36.4277 57.9206C35.3327 58.6245 33.6666 59.2632 32.0222 59.2632C27.5292 59.2632 26.389 57.3026 24.9864 56.6658C23.911 56.1811 22.2676 57.1288 19.9666 54.5522C20.2732 54.6183 20.69 54.641 21.0193 54.641C23.0343 54.641 24.1086 53.6508 24.1086 52.0644C24.1086 51.8659 24.087 51.6487 24.0644 51.4513C24.6787 51.6932 26.0823 52.7485 26.4106 54.6183C26.4549 54.8394 27.3533 55.0369 27.9224 55.0369C28.7127 55.0369 29.7211 54.7062 29.8735 53.409C32.5048 53.1888 34.281 51.626 34.6535 49.6427C35.5951 49.9517 36.6685 50.8106 36.9319 51.2519C37.3044 51.1196 37.7428 51.0534 38.2471 51.0534C38.9479 51.0534 39.7382 51.1857 40.6798 51.473C40.7241 51.1857 40.7683 50.8333 41.2067 50.8333C41.8643 50.8333 41.6883 51.5599 41.9075 51.9765C42.0176 52.1967 42.567 52.3289 42.567 52.7692C42.567 53.1888 42.2142 53.3428 41.996 53.3428C41.9075 53.3428 41.7984 53.3211 41.7316 53.2994C41.2942 53.4534 41.2725 56.6224 39.4305 56.6224C38.0721 56.6224 36.8228 55.4999 36.2743 54.0921C36.12 53.6735 35.7927 53.409 35.485 53.409C35.1351 53.409 34.9376 53.4751 34.5218 53.9381C33.3383 55.2353 31.3646 56.3578 28.9319 56.3578C28.1858 56.3578 27.5951 56.2916 27.4407 56.2916C27.3533 56.2916 27.3533 56.3134 27.3533 56.3351C27.3533 56.4901 28.0983 57.0854 29.7211 57.0854C33.5782 57.0854 34.5218 54.9046 35.1351 54.9046C35.2226 54.9046 35.485 54.9046 35.6384 55.257C36.5368 57.3687 38.4997 57.8534 39.7274 57.8534Z" fill="#636363"/>
<path d="M53.0228 43.8308C52.5628 43.8308 50.016 47.2436 48.3765 47.2436C47.9814 47.2436 47.6531 46.4943 47.6531 45.9246C47.6531 45.6156 47.8487 45.3955 48.5525 45.2415C52.321 44.3816 51.4875 41.5414 54.7076 41.5414C56.4827 41.5414 58.4574 42.7527 58.4574 45.4834C58.4574 48.3897 54.339 51.999 53.7246 51.999C53.2194 51.999 52.6719 51.2734 52.6719 50.7887C52.6719 50.6357 52.7378 50.4363 53.1762 50.2605C55.2777 49.4224 56.4827 47.4864 56.4827 46.4943C56.4827 46.2741 56.3736 46.0569 56.0876 46.0569C55.716 46.0569 54.1198 49.7097 52.3426 49.7097C51.114 49.7097 49.8637 48.5882 49.8637 48.059C49.8637 47.1784 53.417 45.5495 53.417 44.3155C53.417 43.8525 53.1988 43.8308 53.0228 43.8308ZM55.3868 42.4664C55.0801 42.4664 54.7518 42.7093 54.7518 43.3046C54.7518 43.963 55.256 44.3816 55.5411 44.5139C55.6944 44.6018 55.9362 44.6906 56.1751 44.6906C56.812 44.6906 57.3163 44.5139 57.3163 43.9848C57.3163 43.3046 56.3294 42.4664 55.3868 42.4664Z" fill="#636363"/>
<path d="M14.4424 16.9728C14.4424 17.4575 14.8375 17.8544 15.3201 17.8544C15.8018 17.8544 16.1959 17.4575 16.1959 16.9728C16.1959 16.489 15.8018 16.0922 15.3201 16.0922C14.8375 16.0922 14.4424 16.489 14.4424 16.9728ZM13.3032 14.9914C13.3032 15.4752 13.6973 15.872 14.179 15.872C14.6616 15.872 15.0567 15.4752 15.0567 14.9914C15.0567 14.5077 14.6616 14.1108 14.179 14.1108C13.6973 14.1108 13.3032 14.5077 13.3032 14.9914ZM12.5139 21.0234C12.0087 21.1556 10.9579 21.7727 10.9579 22.8724C10.9579 23.6652 11.5703 24.1716 12.3389 24.1716C12.7331 24.1716 13.0181 24.0837 13.1931 23.9515C12.5797 23.3571 12.3605 22.6967 12.3605 22.0372C12.3605 21.5742 12.4264 21.2879 12.5139 21.0234ZM7.14413 21.3324C7.12251 21.4429 7.12251 21.5525 7.12251 21.6621C7.12251 22.6967 7.67 23.2693 8.39344 23.2693C8.93994 23.2693 9.57688 22.9386 10.146 22.212C9.90518 22.2554 9.62013 22.2771 9.35671 22.2771C8.54677 22.2771 7.67 22.0589 7.14413 21.3324ZM6.37646 23.291C6.37646 24.9643 6.88071 25.7571 7.77911 25.7571C8.48092 25.7571 9.42355 25.2506 10.5402 24.2822C9.68599 24.4806 9.02841 24.6119 8.43668 24.6119C7.64739 24.6119 7.03503 24.3039 6.37646 23.291ZM12.0539 14.485C12.163 14.1325 12.2505 13.6932 12.2505 13.2085C12.2505 12.1522 11.7678 10.544 10.2777 10.544C9.42355 10.544 8.80823 11.2262 8.80823 12.0416C8.80823 13.7811 10.5402 14.485 12.0539 14.485ZM10.1892 20.0332C9.46679 20.0332 8.6775 19.1308 8.6775 18.3164C8.6775 17.8761 9.0058 17.3252 9.2476 17.3252C9.33508 17.3252 9.37931 17.3914 9.40094 17.5464C9.53265 18.6244 10.2335 19.2414 10.892 19.5484C10.9579 19.5929 11.0011 19.6146 11.0011 19.659C11.0011 19.813 10.5844 20.0332 10.1892 20.0332ZM12.2072 17.3469C12.3586 17.5543 12.7773 17.8099 12.7773 17.964C12.7773 18.272 12.6014 18.6688 12.2505 18.6688C11.4828 18.6688 10.8694 17.5019 10.8694 16.8405C10.8694 16.4229 11.1112 16.3795 11.4386 16.3795C11.5929 16.3795 11.6577 16.4012 11.7678 16.4673C11.9654 16.5769 11.9654 17.0172 12.2072 17.3469ZM7.05665 20.0776C7.01537 20.1457 6.9908 20.2316 6.9908 20.3205C6.9908 20.5179 7.20999 20.738 7.40658 20.738C7.58252 20.738 7.69162 20.6946 7.77911 20.6946C8.30497 20.6946 8.8967 21.0678 9.75184 21.0678C10.2551 21.0678 10.8478 20.9138 11.5929 20.5406C13.1705 19.7469 13.7858 17.7882 13.7858 17.4575C13.7858 17.0389 13.4506 17.0932 13.1705 16.7082C12.8913 16.3252 12.9985 15.9846 12.8205 15.8059C12.7183 15.7032 12.4048 15.6963 12.0087 15.6519C11.8769 15.6371 11.702 15.6302 11.527 15.6302C10.8036 15.6302 9.94646 15.719 8.98418 16.335C7.08221 17.5533 7.36234 19.5712 7.05665 20.0776ZM14.3333 19.197C13.8507 19.7686 13.3464 20.738 13.3464 21.7282C13.3464 22.9168 14.0708 23.907 15.1884 23.907C16.2618 23.907 16.766 22.983 16.766 22.0372C16.766 20.5623 15.4292 19.5267 14.3333 19.197ZM9.64274 14.9697C9.64274 14.9697 9.0058 15.4534 8.21749 15.4534C7.27585 15.4534 6.5298 14.7496 6.5298 13.7594C6.5298 13.0762 6.88071 12.3723 7.69162 12.0199C7.67 12.1522 7.67 12.2618 7.67 12.394C7.67 13.6488 8.37083 14.5956 9.64274 14.9697Z" fill="#636363"/>
<path d="M48.2882 22.2775C48.2882 22.7849 48.706 23.2035 49.2043 23.2035C49.7096 23.2035 50.1263 22.7849 50.1263 22.2775C50.1263 21.772 49.7096 21.3544 49.2043 21.3544C48.706 21.3544 48.2882 21.772 48.2882 22.2775ZM48.3541 25.0516C48.3541 25.6252 48.8151 26.0872 49.3813 26.0872C49.9514 26.0872 50.4123 25.6252 50.4123 25.0516C50.4123 24.48 49.9514 24.018 49.3813 24.018C48.8151 24.018 48.3541 24.48 48.3541 25.0516ZM45.1959 26.9233C45.1959 27.7595 45.8751 28.4427 46.7097 28.4427C47.5422 28.4427 48.2234 27.7595 48.2234 26.9233C48.2234 26.0872 47.5422 25.404 46.7097 25.404C45.8751 25.404 45.1959 26.0872 45.1959 26.9233ZM46.0069 23.8195C46.0069 24.3042 46.401 24.7001 46.8846 24.7001C47.3672 24.7001 47.7614 24.3042 47.7614 23.8195C47.7614 23.3358 47.3672 22.9389 46.8846 22.9389C46.401 22.9389 46.0069 23.3358 46.0069 23.8195ZM43.1367 25.5807C43.1367 26.0655 43.5318 26.4603 44.0095 26.4603C44.4931 26.4603 44.8883 26.0655 44.8883 25.5807C44.8883 25.096 44.4931 24.7001 44.0095 24.7001C43.5318 24.7001 43.1367 25.096 43.1367 25.5807ZM45.3925 20.4304C45.3925 21.2004 46.0285 21.8382 46.7962 21.8382C47.5648 21.8382 48.2008 21.2004 48.2008 20.4304C48.2008 19.6584 47.5648 19.0206 46.7962 19.0206C46.0285 19.0206 45.3925 19.6584 45.3925 20.4304ZM47.038 17.7215C47.038 18.1835 47.4105 18.5576 47.8715 18.5576C48.3325 18.5576 48.706 18.1835 48.706 17.7215C48.706 17.2594 48.3325 16.8843 47.8715 16.8843C47.4105 16.8843 47.038 17.2594 47.038 17.7215ZM43.0718 19.8351C43.0718 20.2981 43.4444 20.6723 43.9004 20.6723C44.3614 20.6723 44.734 20.2981 44.734 19.8351C44.734 19.3731 44.3614 18.9989 43.9004 18.9989C43.4444 18.9989 43.0718 19.3731 43.0718 19.8351ZM42.9617 22.6961C42.9617 23.4454 43.5545 24.0397 44.2946 24.0397C45.0406 24.0397 45.6343 23.4454 45.6343 22.6961C45.6343 21.9487 45.0406 21.3544 44.2946 21.3544C43.5545 21.3544 42.9617 21.9487 42.9617 22.6961ZM40.1987 24.1058C40.1987 24.789 40.7678 25.3596 41.448 25.3596C42.1272 25.3596 42.6983 24.789 42.6983 24.1058C42.6983 23.4236 42.1272 22.8511 41.448 22.8511C40.7678 22.8511 40.1987 23.4236 40.1987 24.1058ZM40.9438 21.002C40.9438 21.4857 41.3389 21.8826 41.8196 21.8826C42.3032 21.8826 42.6983 21.4857 42.6983 21.002C42.6983 20.5183 42.3032 20.1214 41.8196 20.1214C41.3389 20.1214 40.9438 20.5183 40.9438 21.002ZM48.6391 27.7822C48.6391 27.3419 49.0343 26.9678 49.4678 26.9678C49.9514 26.9678 50.3239 27.3419 50.3239 27.7822C50.3239 28.2887 49.9514 28.6411 49.4678 28.6411C49.0343 28.6411 48.6391 28.2887 48.6391 27.7822Z" fill="#636363"/>
<path d="M49.2047 53.1007C49.3148 53.1007 49.4465 53.1658 49.4465 53.5637C49.4465 54.0474 49.2273 54.6852 48.4419 55.1916C47.8935 55.5658 47.1474 55.8748 46.0505 55.8945C46.2254 55.3673 46.3572 54.8165 46.3572 54.2903C46.3572 54.1136 46.3365 53.9813 46.3139 53.7838H46.5999C48.3319 53.7838 49.0789 53.1007 49.2047 53.1007ZM49.3806 50.9209C49.5586 50.7699 49.5998 50.525 49.5998 50.2822V49.7757C49.5998 49.137 48.6395 48.7638 47.3224 48.7638C45.7212 48.7638 44.866 49.4884 44.866 49.7974V50.8113C44.866 51.2299 45.8313 51.6485 47.0157 51.6485C47.9593 51.6485 48.8155 51.4066 49.3806 50.9209ZM50.5208 51.1638C49.9507 51.605 48.6179 52.5933 46.4014 52.5933C45.217 52.5933 44.6901 52.2191 44.5142 52.2191C44.295 52.2191 44.0532 52.4392 43.8123 52.7265C43.2914 53.3435 42.6112 54.4887 42.6112 55.7425C42.6112 56.6231 43.2914 57.5007 44.5584 57.5007C48.6611 57.5007 51.7279 54.9261 51.7279 52.8361C51.7279 51.6485 51.027 51.1638 50.5208 51.1638Z" fill="#636363"/>
<path d="M51.2891 32.6483C51.2891 33.1982 51.4651 33.837 52.0135 33.837C52.4735 33.837 52.8687 33.1331 52.8687 32.3621C52.8687 31.4814 52.7153 30.7983 52.7153 30.4459C52.7153 30.2928 52.7812 30.2267 52.8687 30.2267C53.198 30.2484 53.5056 31.1507 53.8565 31.1507C54.2517 31.1507 54.8395 30.4241 55.0803 30.4241C55.1461 30.4241 55.1678 30.512 55.1678 30.5337C55.1678 30.8644 54.6635 31.592 54.6635 31.8773C54.6635 32.1192 55.9354 32.1636 55.9354 32.3838C55.9354 32.7145 54.6026 32.7145 53.9666 33.0008C53.3523 33.2644 52.9788 33.5951 52.9788 34.0354C52.9788 34.4757 53.4172 34.5626 54.0325 34.5626C55.497 34.5626 56.5271 33.7708 56.8554 33.7708C56.9213 33.7708 56.9645 33.8152 56.9645 33.8814C56.9645 34.1015 56.2195 34.8271 56.2195 35.1579C56.2195 35.532 57.5799 35.9713 57.5582 36.1915C57.5366 36.2576 57.4482 36.2793 57.2948 36.2793C57.053 36.2793 56.6805 36.2142 56.3944 36.2142C56.2195 36.2142 56.0662 36.2359 55.9993 36.3238C55.8479 36.5005 56.0435 37.6664 55.7388 37.6664C55.4528 37.6664 54.7068 35.07 53.023 35.07C52.7812 35.07 52.6062 35.2674 52.6062 35.5982C52.6062 36.4778 53.4614 37.4907 54.2733 37.9754C54.6409 38.2173 55.2562 38.4601 55.2562 38.5924C55.2562 38.855 53.8565 38.6141 53.8565 39.0534C53.8565 39.4503 54.0325 40.0456 54.0325 40.397C54.0325 40.5076 54.0099 40.6389 53.8781 40.6389C53.6157 40.6389 52.9788 39.4286 52.6711 39.4286C52.4087 39.4286 51.8386 40.1542 51.5958 40.1542C51.5309 40.1542 51.4877 40.088 51.4877 40.0239C51.4877 39.5164 52.2986 38.3723 52.2986 37.2488C52.2986 36.7206 52.2327 35.5755 51.5958 35.5755C51.0699 35.5755 50.4772 36.4116 50.2138 37.2488C50.0605 37.7325 50.1705 39.6043 49.8196 39.6043C49.4904 39.6043 49.5778 38.3495 49.1385 38.3495C48.8151 38.3495 48.1133 38.9439 47.8715 38.9439C47.8282 38.9439 47.784 38.9212 47.784 38.8777C47.784 38.6141 48.4199 37.7552 48.4199 37.5785C48.4199 37.2488 46.9721 37.2054 46.9721 36.9408C46.9721 36.7868 47.5422 36.6762 48.069 36.5883C49.1837 36.3899 50.8291 35.5755 50.8291 34.4323C50.8291 33.1548 49.5995 32.6039 48.7935 32.0748C48.3757 31.8112 47.9157 31.592 47.9157 31.4153C47.9157 31.2386 48.4426 31.2386 48.6617 31.2386C48.99 31.2386 49.3154 31.2169 49.3154 30.9533C49.3154 30.7539 49.2702 30.359 49.2702 30.051C49.2702 29.8298 49.2928 29.6531 49.3812 29.6531C49.7095 29.6531 50.1705 30.7321 50.3897 30.7321C50.7406 30.7321 51.2233 29.8515 51.5535 29.8515C51.6616 29.8515 51.7059 29.9187 51.7059 30.1161C51.7059 30.9306 51.2891 31.8546 51.2891 32.6483ZM40.8337 26.1978C41.0755 28.0686 43.5761 27.1219 43.5761 29.3895C43.5761 29.7202 43.4886 30.205 43.4886 30.6216C43.4886 31.1073 43.5318 31.5259 43.9004 31.5259C44.273 31.5259 44.3614 31.2613 44.3614 30.9089C44.3614 30.5554 44.273 30.1161 44.273 29.8743C44.273 29.1032 44.8214 28.9275 45.1507 28.9275C45.9852 28.9275 46.6212 29.7864 47.8715 29.7864C47.5864 31.1952 44.6897 30.82 44.6897 32.3621C44.6897 33.1331 45.4584 33.3078 45.9626 33.3078C46.4236 33.3078 46.5779 33.2417 46.5779 32.8468C46.5779 32.6256 46.5327 32.3838 46.5327 32.2298C46.5327 32.1409 46.5996 32.0531 46.7096 32.0531C47.1923 32.0531 49.5562 33.8587 49.5562 34.4095C49.5562 34.915 47.0596 35.4215 46.3361 35.4215C46.1169 35.4215 46.0727 35.2674 46.0727 35.1796C46.0727 35.0256 46.4452 34.5626 46.4452 34.299C46.4452 34.1015 46.1169 33.9692 45.2382 33.9692C44.8214 33.9692 44.5148 34.0127 44.5148 34.3444C44.5148 34.9377 45.48 35.6643 45.48 36.2142C45.48 36.6545 45.2166 36.9191 44.5148 36.9191C43.9221 36.9191 43.0276 36.4561 43.0276 35.686C43.0276 35.07 43.6596 34.454 43.6596 34.0798C43.6596 33.9692 43.5761 33.7925 43.3126 33.7925C42.5007 33.7925 42.2815 35.9496 39.4084 36.1915C39.8694 35.7739 40.2636 35.3119 40.2636 34.3661C40.2636 33.9031 40.1545 33.528 40.1545 33.0225C40.1545 32.3621 40.4612 32.0313 40.8996 32.0313C41.7105 32.0313 42.1046 33.1755 42.6325 33.1755C42.9185 33.1755 43.2252 32.9129 43.2252 32.5161C43.2252 30.8427 40.0228 31.0846 40.0228 28.7291C40.0228 28.0903 40.241 27.2986 40.8337 26.1978Z" fill="#636363"/>
<path d="M44.9975 40.5071C44.9975 40.8152 45.2167 41.058 45.5243 41.058C45.8752 41.058 46.0954 40.749 46.0954 40.3966C46.0954 39.9355 45.6777 39.2958 45.2825 39.2958C45.1066 39.2958 45.1734 39.5604 45.1282 39.8467C45.1066 40.0659 44.9975 40.3304 44.9975 40.5071ZM43.8573 37.579C46.1603 38.0193 47.4106 39.7588 47.4106 41.3877C47.4106 42.5112 46.7088 43.5438 45.4801 43.5438C44.3615 43.5438 43.5545 42.7748 43.5545 41.5408C43.5545 40.6167 44.2731 39.6483 44.2731 38.7015C44.2731 38.3274 44.1639 37.9532 43.8573 37.579ZM40.9439 41.3226C41.1621 41.5408 41.2289 41.7619 41.2289 41.982C41.2289 42.3128 41.0756 42.6652 41.0756 43.0394C41.0756 43.5665 41.4697 44.0295 42.0389 44.0295C42.6542 44.0295 43.0719 43.5438 43.0719 42.9742C43.0719 42.137 42.2138 41.3226 40.9439 41.3226ZM48.2008 39.9138C48.3542 40.1537 48.42 40.3966 48.42 40.6167C48.42 41.2337 48.0033 41.8053 48.0033 42.4451C48.0033 43.1716 48.5517 43.765 49.3813 43.765C50.2807 43.765 50.8951 43.0394 50.8951 42.1805C50.8951 41.0136 49.8423 40.0234 48.2008 39.9138ZM41.4697 38.7449C42.4792 38.8772 42.721 39.2297 42.721 39.517C42.721 40.0007 42.2816 40.1537 41.8639 40.1537C41.5572 40.1537 41.2063 40.0886 40.8338 40.0886C40.3512 40.0886 39.8695 40.1981 39.4744 40.6611C39.7594 40.7056 40.1762 40.903 40.1762 41.3443C40.1762 42.6208 36.6465 41.5635 36.6465 44.845C36.6465 46.5835 38.4443 48.478 41.1621 48.478C42.5667 48.478 43.4661 48.015 43.4661 47.4858C43.4661 47.0682 42.721 47.3535 42.721 47.0011C42.721 46.8471 42.9835 46.5598 42.9835 46.3179C42.9835 46.2103 42.896 46.0119 42.721 46.0119C42.3249 46.0119 41.5798 46.6486 40.0661 46.6486C38.8827 46.6486 37.7208 45.9675 37.7208 45.0424C37.7208 44.845 37.8083 44.7334 37.94 44.7334C38.0718 44.7334 38.2467 44.8223 38.4001 44.8223C38.5327 44.8223 38.5544 44.7334 38.5544 44.4916C38.5544 44.2497 38.5544 43.5665 38.9702 43.5665C39.3869 43.5665 40.1762 45.1086 43.2036 45.1086C44.2082 45.1086 46.1603 44.9101 46.8847 44.2497C46.8621 46.6713 44.9758 49.863 41.0314 49.863C36.9325 49.863 34.7396 46.5598 34.7396 43.5221C34.7396 40.1537 37.479 37.0953 41.2289 37.0953C42.1922 37.0953 43.0051 37.424 43.0051 37.8426C43.0051 38.4162 41.5798 38.0638 41.4697 38.7449Z" fill="#636363"/>
<path d="M27.2876 13.605C28.7345 13.605 29.3911 14.8598 29.3911 16.2686C29.3911 16.8846 29.2171 17.7879 28.9321 17.7879C28.647 17.7879 28.6903 17.2815 28.647 16.8184C28.6028 16.2251 28.4937 16.0928 28.2961 16.0928C27.9226 16.0928 27.6828 16.9725 27.6828 17.7879C27.6828 18.2934 27.7702 18.8669 28.1644 18.8669C28.3836 18.8669 28.5812 18.7564 28.7119 18.6241C28.6244 19.637 27.8784 20.5186 26.8266 20.5186C24.8981 20.5186 24.1747 18.2499 23.9555 16.929C22.7937 18.1621 21.7203 19.0654 19.7908 19.0654C17.994 19.0654 17.1821 17.7445 17.1821 16.4897C17.1821 16.1146 17.3138 15.1461 17.7748 15.1461C18.3223 15.1461 17.8407 16.9507 18.9141 16.9507C19.1775 16.9507 19.6591 16.7306 19.9225 16.005C20.0759 15.5637 20.1643 15.1027 20.1643 14.7058C20.1643 14.1105 20.0326 13.7373 19.5952 13.7373C19.2217 13.7373 18.7607 14.0226 18.6074 14.1766C19.1342 12.5912 20.4052 11.7767 21.8068 11.7767C23.5397 11.7767 24.4597 13.3187 24.4597 15.0355C24.4597 15.2774 24.4371 15.542 24.3939 15.7838C25.1389 14.5508 26.17 13.605 27.2876 13.605ZM25.599 16.2024C25.599 15.8283 25.5115 15.7404 25.424 15.7404C25.2048 15.7404 24.964 16.005 24.6131 16.5993C24.6573 17.392 24.789 17.7445 25.0082 17.7445C25.248 17.7445 25.599 16.9725 25.599 16.2024ZM22.5961 17.1047C22.8369 17.1047 23.1446 16.8402 23.7147 16.2024C23.7589 15.9161 23.7589 15.6516 23.7589 15.3218C23.7589 14.8815 23.583 14.3968 23.3205 14.3968C22.662 14.3968 22.3337 16.159 22.3337 16.622C22.3337 16.8846 22.4644 17.1047 22.5961 17.1047ZM26.17 19.0654C26.7175 19.0654 27.3309 16.9507 27.3309 15.6298C27.3309 15.3435 27.2876 15.0355 27.1559 15.0355C26.6949 15.0355 25.9282 17.2153 25.9282 18.4039C25.9282 18.8669 26.0383 19.0654 26.17 19.0654ZM20.8003 17.854C21.5454 17.854 22.3985 13.8035 22.3985 13.1203C22.3985 12.9436 22.3337 12.8113 22.1803 12.8113C21.5011 12.8113 20.5585 16.6644 20.5585 17.5233C20.5585 17.6783 20.6027 17.854 20.8003 17.854Z" fill="#636363"/>
<path d="M23.1881 19.5263C22.2455 19.5263 22.2022 20.6725 22.2022 22.9826C21.5014 21.4642 20.3396 19.8353 18.9802 19.8353C18.0602 19.8353 17.7093 20.4523 17.7093 21.5294C17.7093 21.7505 17.7309 22.0812 17.7751 22.2777C17.8842 21.9045 18.2361 21.7505 18.6735 21.7505C19.6162 21.7505 20.7564 22.4761 21.5014 23.4673C20.6463 23.3133 19.8127 23.1593 19.1119 23.1593C18.6735 23.1593 18.2784 23.2037 17.9501 23.3577C17.3141 23.643 16.459 24.5898 16.459 26.0212C16.459 26.2414 16.4816 26.4833 16.5258 26.7478C17.2925 25.0301 19.3311 24.26 20.6463 24.26C20.9097 24.26 21.1063 24.2818 21.2596 24.3035C20.5804 24.9195 20.4271 25.9995 20.3828 26.7251C20.3612 27.0776 20.2295 27.1003 19.9887 27.1003C19.9887 27.8259 20.5588 28.9059 20.5588 29.4558C20.5588 29.6532 20.4487 29.8299 20.3396 29.8744C20.3396 30.8428 21.3038 31.5477 21.3038 32.1637C21.3038 32.3177 21.2596 32.45 21.1938 32.5162C21.2596 32.913 22.3202 33.5794 22.4578 33.9131C22.6259 34.3188 22.8156 34.3879 22.9257 34.3879C23.2982 34.3879 23.8889 33.9467 23.8889 33.5508C23.8889 33.4185 23.7798 33.2645 23.6933 33.1983C23.2766 32.8903 23.0564 32.2299 22.8814 31.7896C22.7271 31.7896 22.5286 31.7244 22.4598 31.4658C22.3399 31.0097 22.334 30.1607 22.158 29.6532C21.873 29.5881 21.7412 29.4775 21.7412 28.8842C21.7412 28.5969 21.9172 27.4744 21.9172 27.0776C21.7855 27.0776 21.6105 26.9897 21.6105 26.7251C21.6105 26.0212 22.3123 25.4704 22.5089 24.568C23.7592 25.4921 24.0649 26.4388 24.0649 27.276C24.0649 27.7153 23.999 28.1349 23.9116 28.5317C24.8326 28.0687 26.2136 27.3866 26.2136 25.9995C26.2136 25.1841 25.841 24.2818 23.3641 23.9293C24.1307 23.643 25.096 23.49 25.9069 23.49C27.3095 23.49 28.1205 23.9293 28.2954 24.9195C28.5805 24.4802 28.8006 23.9728 28.8006 23.5117C28.8006 22.4317 27.9003 21.7278 26.7611 21.7278C25.4243 21.7278 24.2408 22.4317 22.9689 23.2916C23.54 22.103 23.9332 21.3981 24.635 21.3981C24.7451 21.3981 24.8552 21.4208 24.9643 21.4425C24.7008 20.474 23.715 19.5263 23.1881 19.5263Z" fill="#636363"/>
<path d="M60.1207 35.3991C61.2176 35.3991 62.0944 36.8306 62.0944 38.5039C62.0944 40.2859 61.2609 42.2238 59.7747 43.5437C59.7521 40.5732 56.131 41.5199 56.131 39.3618C56.131 38.4378 56.7895 37.8208 57.5798 37.8208C58.2826 37.8208 58.8301 38.0192 59.2252 38.4161C58.8301 38.0419 58.6325 37.5128 58.6325 37.0073C58.6325 36.1692 59.1594 35.3991 60.1207 35.3991Z" fill="#636363"/>
<path d="M43.8571 12.8778C43.6812 12.5915 43.0276 12.4385 42.7209 12.4385C41.7547 12.4385 41.0971 13.1207 40.9654 13.7377C40.8779 13.5165 40.8111 13.2529 40.8111 12.9884C40.8111 12.0199 41.4696 10.8313 43.0718 10.8313C44.4715 10.8313 45.019 11.5796 45.2175 11.5796C45.4357 11.5796 45.6559 11.3585 45.8319 11.3585C46.0727 11.3585 46.0727 11.7336 46.0727 11.9982C46.0727 12.8778 45.6785 14.3971 44.6907 14.948C44.5147 14.5729 44.1638 14.1553 43.5977 13.8917C43.4443 13.8255 43.3785 13.6932 43.3785 13.561C43.3785 13.3191 43.5977 13.0101 43.8571 12.8778ZM40.5486 14.485C41.1187 15.0359 41.622 15.2777 42.2363 15.2777C42.4791 15.2777 42.7641 15.2126 42.9185 15.2126C43.115 15.2126 43.2467 15.2995 43.2467 15.4535C43.2467 15.6963 43.0276 16.0922 42.7641 16.3133C43.0276 16.4229 43.3126 16.4673 43.6203 16.4673C44.8656 16.4673 46.2919 15.6736 46.2919 13.6932C46.5553 14.0447 46.7096 14.7723 46.7096 15.102C46.7096 17.5019 44.9541 18.426 43.3352 18.426C42.2815 18.426 41.7547 18.0735 41.622 18.0735C41.2072 18.0735 41.2288 18.9107 40.9437 18.889C40.4385 18.8011 39.9795 17.6777 39.9795 16.4891C39.9795 15.7842 40.1545 15.0359 40.5486 14.485Z" fill="#636363"/>
<path d="M21.7856 0.483381C21.7856 0.351093 21.128 0.218806 20.2296 0.218806C18.8053 0.218806 19.0019 1.40841 17.9069 1.40841C16.7667 1.40841 17.0508 0.174381 15.6039 0.174381C14.7271 0.174381 13.9172 0.329374 13.9172 0.526819C13.9172 0.791394 14.9473 0.681813 14.9473 1.40841C14.9473 2.17844 12.7338 2.39958 12.7338 2.8616C12.7338 3.01462 12.9077 3.08076 13.1269 3.08076C13.6096 3.08076 14.3762 2.8616 14.9247 2.8616C15.2324 2.8616 15.5174 2.92675 15.5174 3.21305C15.5174 3.76392 14.333 4.75509 14.333 5.19539C14.333 5.32768 14.4421 5.3721 14.5522 5.3721C14.9906 5.3721 15.7356 4.24864 16.4374 4.24864C17.5993 4.24864 16.8326 6.73644 17.4676 6.73644C18.1261 6.73644 17.8411 4.29208 18.7827 4.29208C19.5514 4.29208 20.1205 5.98714 20.6463 5.98714C20.7781 5.98714 20.8881 5.87756 20.8881 5.72257C20.8881 5.26153 20.2296 4.3138 20.2296 3.69777C20.2296 3.32362 20.493 3.1469 20.8439 3.1469C21.3472 3.1469 22.0274 3.45492 22.3989 3.45492C22.5306 3.45492 22.6623 3.41148 22.6623 3.25747C22.6623 2.72931 20.7122 2.15672 20.7122 1.47455C20.7122 0.791394 21.7856 0.791394 21.7856 0.483381ZM26.9371 2.72931C26.9371 3.12519 28.3181 3.98407 28.9541 3.98407C29.3256 3.98407 29.4357 3.47762 29.4357 2.94847C29.4357 2.28901 29.1516 2.26729 28.5806 2.26729C27.8581 2.26729 26.9371 2.46572 26.9371 2.72931ZM29.2175 7.08789C29.2175 5.76699 25.6603 3.36804 25.6219 2.33343C25.618 2.23866 25.6691 2.14488 25.7487 2.05997C26.3582 1.41532 28.8882 0.944414 28.8882 0.394531C28.8882 0.109224 28.3614 0.109224 28.0979 0.109224C26.0603 0.109224 23.0791 0.857538 23.0791 1.58413C23.0791 2.33343 25.7527 4.16078 25.7527 5.0631C25.7527 5.30596 25.5993 5.39382 25.3575 5.39382C24.6135 5.39382 22.9906 4.49051 22.224 4.49051C21.873 4.49051 21.7413 4.73238 21.7413 5.08482C21.7413 6.14214 22.9906 8.14521 22.9906 8.73853C22.9906 8.80467 22.969 8.89253 22.8815 8.89253C22.4864 8.89253 20.6247 6.69202 19.9662 6.69202C19.7253 6.69202 19.7037 7.02175 19.7037 7.50648V8.25479C19.7037 8.76123 19.6811 9.06925 19.4413 9.06925C18.8712 9.06925 18.6068 7.46205 18.0603 7.46205C17.4902 7.46205 17.3801 10.324 16.8326 10.324C16.1966 10.324 16.7451 7.17576 16.1308 7.17576C15.4516 7.17576 14.6839 9.26768 14.2013 9.26768C14.0263 9.26768 13.9831 9.09097 13.9831 8.93696C13.9831 8.29921 14.3546 7.26461 14.3546 6.64858C14.3546 6.33958 14.2671 6.16386 14.0047 6.16386C13.3245 6.16386 11.8334 7.26461 11.2643 7.26461C11.1768 7.26461 11.0677 7.22018 11.0677 7.13232C11.0677 6.60416 13.4562 4.93081 13.4562 4.1825C13.4562 3.45492 10.1673 3.94063 10.1673 3.10347C10.1673 2.39958 12.5146 1.672 12.5146 0.946388C12.5146 0.306668 9.72993 0.0213614 8.65658 0.0213614C7.36206 0.0213614 6.66221 0.174381 6.66221 0.549525C6.66221 1.12211 9.59921 1.29883 9.59921 1.80428C9.59921 2.28901 6.55212 3.58721 6.55212 4.33552C6.55212 4.99696 10.8475 4.37994 10.8475 5.0631C10.8475 5.81142 7.1006 9.04654 7.1006 10.1256C7.1006 10.3684 7.27654 10.478 7.51638 10.478C8.65658 10.478 11.6142 8.29921 12.4261 8.29921C12.7112 8.29921 12.7338 8.65067 12.7338 8.95868C12.7338 9.53225 12.5362 10.4119 12.5362 11.0506C12.5362 11.557 12.6679 11.9095 13.1053 11.9095C13.9172 11.9095 14.6623 10.5224 15.2098 10.5224C15.9106 10.5224 15.4958 14.5947 16.5475 14.5947C17.4459 14.5947 17.8185 10.1917 18.3876 10.1917C18.9587 10.1917 19.4197 11.4692 19.9445 11.4692C20.6021 11.4692 20.2954 9.24596 20.9973 9.24596C21.7639 9.24596 23.9549 11.8878 24.9427 11.8878C25.2484 11.8878 25.3575 11.6449 25.3575 11.3359C25.3575 10.17 23.7367 7.52918 23.7367 6.69202C23.7367 6.47187 23.8016 6.40572 24.0424 6.40572C24.8985 6.40572 27.3971 7.59434 28.5806 7.59434C28.9757 7.59434 29.2175 7.37419 29.2175 7.08789ZM9.20309 5.81142C9.20309 6.25172 7.538 7.72564 6.94726 7.72564C6.72807 7.72564 6.66221 7.46205 6.66221 7.22018C6.66221 6.78087 6.8588 6.16385 7.1006 5.96542C7.38467 5.70085 8.04225 5.57053 8.54649 5.57053C8.85218 5.57053 9.20309 5.6347 9.20309 5.81142ZM25.3143 8.07906C25.3143 8.8491 28.0547 12.6134 28.5806 12.6134C29.0199 12.6134 29.3472 11.8433 29.3472 11.1819C29.3472 11.0072 29.304 10.8314 29.2175 10.6982C28.8224 10.1483 26.0387 7.94678 25.4244 7.94678C25.3575 7.94678 25.3143 8.01292 25.3143 8.07906Z" fill="#636363"/>
<path d="M60.5151 1.40898C60.5151 1.71601 60.7559 1.95788 61.0636 1.95788C61.3703 1.95788 61.6121 1.71601 61.6121 1.40898C61.6121 1.09998 61.3703 0.858112 61.0636 0.858112C60.7559 0.858112 60.5151 1.09998 60.5151 1.40898ZM56.9432 6.27401C56.9432 4.71025 53.2198 4.31437 53.2198 3.96194C53.2198 3.67663 55.2997 3.19092 56.3731 3.1692C54.7296 1.05654 52.3863 1.27669 52.3863 0.902536C52.3863 0.681398 54.1408 0.241098 55.7607 0.241098C57.1191 0.241098 58.391 0.549111 58.391 1.58372C58.391 2.1573 57.931 2.7516 57.931 3.6322C57.931 4.11693 58.1708 4.53452 58.8088 4.53452C59.489 4.53452 59.6423 3.80793 59.6423 3.03691C59.6423 2.39916 59.5322 1.91444 59.5322 1.60643C59.5322 0.681398 60.1642 0.0653725 61.0636 0.0653725C61.8096 0.0653725 61.9846 0.395104 63.0816 0.395104C62.4889 0.747542 62.2706 1.38726 62.2706 1.69429C62.2706 2.61931 62.8633 3.25805 62.8633 5.15154C62.8633 8.62853 59.6197 9.86157 55.6506 9.86157C54.5586 9.86157 53.3958 9.77371 52.2546 9.59798C52.0796 9.57627 52.0354 9.53184 52.0354 9.42226C52.0354 9.13498 53.5933 8.98097 53.5933 7.57319C53.5933 7.02232 53.4174 6.49416 53.4174 6.29573C53.4174 6.18615 53.5049 6.12 53.5933 6.12C53.9226 6.12 54.5812 7.39648 55.8049 7.39648C56.1313 7.39648 56.9432 7.28591 56.9432 6.27401ZM60.6459 4.05079C60.6459 6.00943 59.2255 7.50705 56.6571 7.92464C56.9432 7.94636 57.2066 7.94636 57.47 7.94636C60.4709 7.94636 61.5678 6.58202 61.5678 5.43783C61.5678 4.7991 61.2169 4.22651 60.6459 4.05079Z" fill="#636363"/>
<path d="M59.1377 32.4276C59.4886 31.3269 59.9279 30.5558 60.6465 29.3672C59.9279 28.994 58.0191 28.2003 58.0191 26.9011C58.0191 25.3828 59.9053 24.1942 60.2956 24.1942C60.4705 24.1942 60.5147 24.3482 60.5147 24.6345C60.5147 25.4262 60.1422 26.7037 60.1422 27.3859C60.1422 28.0019 60.5374 28.5972 60.8883 28.5972C61.2608 28.5972 62.2919 27.2763 62.2919 25.9771C62.2919 23.6423 60.2513 22.9384 59.6203 22.9384C59.0276 22.9384 57.9532 23.9069 55.431 23.9069C50.7199 23.9069 49.6445 19.2196 49.6445 17.1711C49.6445 17.0832 49.6662 17.0605 49.6878 17.0605C49.7979 17.0605 50.2589 17.6341 51.75 17.6341C52.5176 17.6341 53.2194 17.4357 54.339 17.4357C56.9654 17.4357 58.1282 19.264 59.752 21.5958C60.7339 22.2118 63.0822 23.203 63.0822 25.9988C63.0822 28.4649 60.4705 29.8302 59.8395 32.471C60.844 32.3624 61.4367 30.5558 62.4668 30.5558C62.9937 30.5558 63.2355 30.9744 63.2355 31.6359C63.2355 32.6033 62.687 34.0575 61.6333 34.9598C61.6559 34.871 61.6559 34.7614 61.6559 34.6291C61.6559 34.0131 61.4151 33.1335 60.7123 33.1335C59.6203 33.1335 59.2684 34.3211 58.655 35.3113C58.0191 33.0673 57.163 31.0406 55.6296 29.8075C54.0766 28.5528 51.3991 29.2349 51.3991 26.9456C51.3991 26.3286 51.7942 25.4489 51.7942 24.7441C51.7942 24.5022 51.75 24.282 51.6183 24.1053C53.7247 24.8991 52.9786 26.3068 54.2731 27.76C55.0801 28.685 57.3163 29.5656 58.6118 33.3744C58.6324 33.2638 58.655 32.9785 58.655 32.78C58.655 29.5212 54.3606 26.3285 53.9881 25.0076C56.4828 25.2939 56.9212 25.911 58.1066 29.2132C58.3474 29.8964 59.1377 31.5914 59.1377 32.4276ZM58.5676 21.7498C58.5676 21.2878 57.4038 21.2444 57.2947 19.9452C57.2721 19.7467 57.2072 19.3953 56.9654 19.3953C56.5703 19.3953 56.8769 20.6056 56.4385 20.6056C55.431 20.6056 55.1027 18.6243 54.7292 18.6243C54.6408 18.6243 54.5366 18.6904 54.5366 18.955C54.5366 19.1969 54.5808 19.3519 54.5808 19.6362C54.5808 19.9235 54.5149 20.1209 54.2515 20.1209C53.6588 20.1209 53.1329 18.7348 52.6277 18.7348C52.5176 18.7348 52.4085 18.801 52.4085 18.9106C52.4085 19.1751 52.8469 19.6589 52.8469 19.9017C52.8469 20.4299 51.4217 20.1436 51.4217 20.5839C51.4217 20.7823 51.6183 20.8475 51.8817 20.8475C52.3427 20.8475 53.0671 20.6501 53.4396 20.6501C53.6588 20.6501 53.9881 20.6945 53.9881 20.9798C53.9881 21.2878 53.1988 21.6837 53.1988 21.97C53.1988 22.1023 53.3305 22.1674 53.4396 22.1674C54.0323 22.1674 55.0801 21.1338 55.8262 21.1338C55.9569 21.1338 56.2852 21.1999 56.2852 21.3984C56.2852 21.6837 55.5411 22.1891 55.5411 22.6077C55.5411 22.7183 55.607 22.8506 55.7387 22.8506C56.1309 22.8506 56.6577 21.816 57.4038 21.816C57.6898 21.816 58.1066 21.9265 58.3258 21.9265C58.5017 21.9265 58.5676 21.816 58.5676 21.7498Z" fill="#636363"/>
<path d="M42.2366 8.56205C42.5885 8.56205 42.6544 9.42192 42.7212 9.92737C42.7645 10.192 42.8087 10.2137 42.9188 10.2137C43.1822 10.2137 43.598 9.20078 43.8791 9.20078C44.2949 9.20078 45.4144 10.3677 47.2791 10.3677C49.93 10.3677 52.4306 8.4959 52.4306 5.19463C52.4306 2.00295 50.1925 0.131176 47.1031 0.131176C45.6346 0.131176 44.5583 0.857771 43.9882 0.857771C43.6422 0.87949 43.1154 -0.000125885 42.8519 -0.000125885C42.7428 -0.000125885 42.6327 0.219039 42.6327 0.593196C42.6327 0.836053 42.6327 1.60608 42.3693 1.60608C41.8415 1.60608 39.8039 0.0877371 39.8039 0.637619C39.8039 1.14406 41.1623 2.68512 41.1623 3.08099C41.1623 3.47786 39.8255 3.85201 39.8255 4.11659C39.8255 4.60033 41.2507 4.68819 41.2507 5.3052C41.2507 5.92123 39.7596 6.40596 39.7596 6.86896C39.7596 7.24213 41.2507 6.97854 41.2507 7.44056C41.2507 7.90258 40.1548 9.44364 40.1548 9.88295C40.1548 9.99352 40.1764 9.99352 40.2639 9.99352C40.6797 9.99352 41.929 8.56205 42.2366 8.56205ZM42.8745 4.95277C42.8745 4.7109 42.0174 4.24888 42.0174 3.9843C42.0174 3.94086 42.0607 3.91816 42.1275 3.91816C42.3693 3.91816 42.7861 4.00701 43.1154 4.00701C43.4014 4.00701 43.4446 2.77397 43.6599 2.77397C43.8123 2.77397 44.0757 3.94086 44.3185 3.94086C44.6025 3.94086 45.1284 3.61014 45.3486 3.61014C45.3928 3.61014 45.4361 3.63186 45.4361 3.67629C45.4361 3.8303 44.8876 4.42361 44.8876 4.60033C44.8876 4.79876 46.1162 5.04063 46.1162 5.21734C46.1162 5.43749 44.866 5.41577 44.866 5.6142C44.866 5.76722 45.327 6.38424 45.327 6.58168C45.327 6.62611 45.3043 6.64881 45.2611 6.64881C45.0852 6.64881 44.405 6.33981 44.2074 6.33981C43.9666 6.33981 43.5764 7.24213 43.3788 7.24213C43.3129 7.24213 43.2697 7.15427 43.2697 7.0437L43.2245 6.1631C43.2245 6.07524 43.1822 5.98737 43.0721 5.98737C42.8087 5.98737 42.3035 5.96467 42.1491 5.96467C42.0391 5.96467 41.9958 5.94295 41.9958 5.89951C41.9958 5.7228 42.8745 5.10677 42.8745 4.95277ZM47.1473 9.13562C45.612 9.13562 44.6025 8.36559 44.6025 7.96873C44.6025 7.7703 44.7342 7.639 44.9102 7.639C45.3928 7.639 46.4455 8.38632 46.7964 8.38632C46.8839 8.38632 46.9498 8.34288 46.9498 8.2106C46.9498 7.81373 46.5772 7.15427 46.5772 6.82454C46.5772 6.73668 46.6431 6.67053 46.7748 6.67053C47.3665 6.67053 48.2453 6.91339 48.7063 6.91339C48.8586 6.91339 48.9019 6.82454 48.9019 6.73668C48.9019 6.25195 47.4766 5.3052 47.4766 5.01891C47.4766 4.75433 49.2488 4.35747 49.2488 3.94086C49.2488 3.49958 46.8397 3.80759 46.8397 3.38999C46.8397 3.08099 47.3007 2.55283 47.3007 2.31096C47.3007 2.20039 47.2132 2.15695 47.0599 2.15695C46.8623 2.15695 45.8096 2.57554 45.3712 2.57554C45.151 2.57554 44.8876 2.53111 44.8876 2.2231C44.8876 1.71567 45.7437 1.16578 47.0815 1.16578C49.2488 1.16578 50.5443 2.6634 50.5443 5.17292C50.5443 8.34288 48.3318 9.13562 47.1473 9.13562Z" fill="#636363"/>
<path d="M32.3074 47.2218C32.3074 47.4202 32.2415 47.6413 32.0656 47.8605C31.8257 47.4202 31.1456 47.1991 30.8379 47.2C28.5811 47.2 29.4353 50.4806 27.0241 50.4806C26.0166 50.4806 25.9282 50.3483 25.5556 50.3483C25.4023 50.3483 25.3148 50.4144 25.3148 50.5467C25.3148 51.1203 26.1257 52.5281 28.3835 52.5281C30.6413 52.5281 32.8116 51.142 32.8116 49.4223C32.8116 49.137 32.7458 48.8309 32.6141 48.5219C32.7015 48.3896 32.9217 48.3018 33.1193 48.3018C33.4692 48.3018 33.6668 48.6986 33.9951 48.6986C34.347 48.6986 34.6094 48.4341 34.6094 48.0816C34.6094 47.7953 34.4561 47.5969 34.1926 47.4636C34.3686 47.3323 34.4993 47.1112 34.4993 46.8693C34.4993 46.4952 34.2369 46.1447 33.7975 46.1447C33.5999 46.1447 33.4692 46.2108 33.3159 46.3629C33.2726 45.968 33.0534 45.5938 32.6367 45.5938C32.3074 45.5938 32.0656 45.8357 32.0656 46.2108C32.0656 46.5603 32.3074 46.8476 32.3074 47.2218Z" fill="#636363"/>
<path d="M26.4111 48.0594C25.7535 48.0594 24.7666 47.3546 24.7666 46.9577C24.7666 46.627 25.0743 46.4503 25.3141 46.4503C25.8626 46.4503 26.8485 47.1334 26.8485 47.706C26.8485 47.861 26.7384 48.0594 26.4111 48.0594ZM20.2953 43.1283C22.0488 43.5666 22.9256 44.5133 23.1006 45.6378C23.2765 46.7148 23.4957 47.5964 23.9115 48.0367C24.4599 48.6547 25.5333 49.2026 26.4769 49.2026C27.2662 49.2026 27.9002 48.941 27.9002 48.2134C27.9002 47.4207 26.8268 45.6378 25.2483 45.6378C25.0959 45.6378 24.8983 45.6605 24.6791 45.6605C24.4816 45.6605 24.1965 45.6161 24.0206 45.4621C23.6707 45.1531 23.5616 43.5014 22.903 42.5112C22.1805 41.4105 21.3912 41.1015 20.3179 41.1015C19.5512 41.1015 18.6951 41.5201 18.6951 42.1371C18.6951 42.5112 18.8926 42.7748 20.2953 43.1283Z" fill="#636363"/>
<path d="M31.2991 40.4408C31.2991 39.4506 29.2595 39.4289 29.2595 37.9312C29.2595 37.5561 29.5013 36.9184 29.9839 36.2352C30.1815 37.3804 30.6415 37.9747 31.6284 38.3498C33.5785 39.0754 33.8419 40.1762 33.8419 41.3441C33.8419 43.3264 32.4609 45.7915 28.9106 45.7915C26.0601 45.7915 24.0215 43.2376 24.0215 41.0805C24.0215 40.4852 24.1748 39.8247 24.5474 39.8247C24.8766 39.8247 24.9867 40.0883 25.2482 40.3529C26.236 41.3441 27.3094 41.6077 28.8663 41.6077C30.269 41.6077 31.2991 41.0361 31.2991 40.4408ZM31.3866 42.0262C30.6346 42.3718 30.3348 42.3125 30.3348 43.0845C30.3348 43.3698 30.269 43.743 30.269 43.9415C30.269 44.205 30.3132 44.36 30.6189 44.36C31.4092 44.36 32.6585 43.0174 32.6585 41.8722C32.6585 41.5632 32.4825 41.4329 32.285 41.4329C32.109 41.4329 31.9134 41.7844 31.3866 42.0262ZM24.394 30.9091C24.394 29.4994 27.7261 28.7511 27.7261 27.0116C27.7261 26.7253 27.617 26.2198 27.4195 25.8447C28.5813 26.4834 29.4355 27.5634 29.4355 28.4431C29.4355 29.9624 27.8579 30.6663 27.8579 31.614C27.8579 32.7148 29.5455 32.8905 29.5455 34.2558C29.5455 35.3773 27.9444 36.6765 27.9444 38.1297C27.9444 39.2521 28.7346 40.1762 29.9397 40.3302C29.5455 40.419 29.1946 40.4852 28.8221 40.4852C26.6076 40.4852 24.3282 38.6588 24.3282 36.4781C24.3282 35.399 24.7892 34.4543 25.49 33.7711C26.1043 34.2993 26.7177 34.6517 27.1118 34.6517C27.4627 34.6517 27.617 34.476 27.617 34.2114C27.617 33.396 24.394 32.6486 24.394 30.9091Z" fill="#636363"/>
<path d="M11.68 41.784C11.7724 42.5363 12.4703 43.1059 13.2586 43.018C13.5427 42.9864 13.8071 42.9074 13.983 42.7979C14.158 43.5018 14.7467 43.9549 15.5419 43.8502C16.3489 43.7446 16.8984 43.1059 16.8109 42.2904C16.7873 42.0713 16.745 41.938 16.6792 41.784C16.6792 41.784 16.7863 41.7731 16.8669 41.7573C17.6582 41.6073 18.1919 40.9695 18.1261 40.1985C18.0386 39.4068 17.3309 38.8184 16.5927 38.9092C16.3076 38.9447 16.0432 39.0533 15.8673 39.2083C15.6697 38.5489 15.0515 37.9743 14.2071 38.1155C13.4453 38.2418 12.9411 38.8914 13.0178 39.7148C13.0296 39.8481 13.061 40.0011 13.1269 40.1541C13.1269 40.1541 12.9981 40.1738 12.9097 40.1867C12.2698 40.2824 11.5758 40.9291 11.68 41.784ZM15.7759 40.9182C15.8299 41.3782 15.5026 41.7929 15.0446 41.8472C14.5875 41.9005 14.1727 41.5708 14.1206 41.1117C14.0666 40.6516 14.3939 40.235 14.8519 40.1817C15.31 40.1274 15.7238 40.4572 15.7759 40.9182Z" fill="#636363"/>
</g>
<defs>
<clipPath id="clip0_98_1333">
<rect width="72" height="80" fill="white"/>
</clipPath>
</defs>
</svg>
